<svg xmlns="http://www.w3.org/2000/svg" xmlns:xlink="http://www.w3.org/1999/xlink" id="Layer_1" x="0" y="0" version="1.1" viewBox="0 0 249 249" style="enable-background:new 0 0 249 249" xml:space="preserve"><style type="text/css">.st0,.st1{fill-rule:evenodd;clip-rule:evenodd}.st1{fill:#fff}</style><path d="M132,249c0.3,0,0.6,0,0.9,0c25.9-0.8,48.1-12.5,64.1-23c53.5-35,52-103,52-103s1.3-33.4-22-69	c-17.6-27-58.9-53.3-99-54C91.8-0.6,59.2,16.4,41.5,31.7C2.9,64.9,0,112,0,112v137H132z" class="st0"/><path d="M178.7,67.8c-10.7-10-24.8-19.9-56.4-19.7C97.1,48.3,53.7,69.5,50,119.9c-1.5,20.7,9.2,40.5,9.2,40.5l-14,43.6	l49.6-10.8c0,0,15.2,7.8,40.9,6.2c19.9-1.3,59.1-18.8,66.6-64.6C207.4,103,189.3,77.8,178.7,67.8z" class="st1"/></svg>