<?xml version="1.0" encoding="UTF-8"?>
<svg version="1.1" viewBox="0 -5 193 51" xmlns="http://www.w3.org/2000/svg" xmlns:xlink="http://www.w3.org/1999/xlink"><g transform="translate(27.0 -1.0)"><path d="M-0.576,35.952 C-0.576,36.456 -0.792,36.924 -1.224,37.356 C-0.576,37.836 0.084,38.076 0.756,38.076 C2.1,38.076 3.066,37.68 3.654,36.888 C4.242,36.096 4.536,34.824 4.536,33.072 L4.572,21.768 C4.572,19.656 4.512,18.354 4.392,17.862 C4.272,17.37 3.948,17.124 3.42,17.124 C3.156,17.124 2.82,17.172 2.412,17.268 C2.196,17.34 1.98,17.376 1.764,17.376 C0.996,17.376 0.612,16.992 0.612,16.224 C0.612,15.432 1.116,15.036 2.124,15.036 C2.484,15.036 2.796,15.048 3.06,15.072 C3.828,15.144 4.368,15.18 4.68,15.18 C4.872,15.18 5.172,15.15 5.58,15.09 C5.988,15.03 6.288,15 6.48,15 C7.176,15 7.524,15.384 7.524,16.152 C7.524,16.272 7.512,16.512 7.488,16.872 C7.464,17.304 7.452,17.652 7.452,17.916 C7.428,18.3 7.392,19.164 7.344,20.508 C7.296,22.02 7.272,23.184 7.272,24 L7.272,32.136 C7.272,33.576 7.212,34.644 7.092,35.34 C6.876,36.468 6.444,37.428 5.796,38.22 C4.644,39.612 3.036,40.308 0.972,40.308 C-0.468,40.308 -1.668,39.948 -2.628,39.228 C-3.588,38.508 -4.068,37.608 -4.068,36.528 C-4.068,35.928 -3.894,35.43 -3.546,35.034 C-3.198,34.638 -2.76,34.44 -2.232,34.44 C-1.776,34.44 -1.386,34.59 -1.062,34.89 C-0.738,35.19 -0.576,35.544 -0.576,35.952 Z M5.472,13.128 C4.92,13.128 4.446,12.93 4.05,12.534 C3.654,12.138 3.456,11.664 3.456,11.112 C3.456,10.56 3.654,10.092 4.05,9.708 C4.446,9.324 4.92,9.132 5.472,9.132 C6.024,9.132 6.504,9.33 6.912,9.726 C7.32,10.122 7.524,10.584 7.524,11.112 C7.524,11.664 7.32,12.138 6.912,12.534 C6.504,12.93 6.024,13.128 5.472,13.128 Z" stroke="none" fill="#000000"/><path d="M20.726,14.388 C22.334,14.388 23.678,14.808 24.758,15.648 L24.758,15.504 C24.758,14.616 25.142,14.172 25.91,14.172 C26.702,14.172 27.098,14.556 27.098,15.324 C27.098,15.468 27.074,15.828 27.026,16.404 C26.93,16.884 26.882,17.364 26.882,17.844 C26.882,18.132 26.924,18.552 27.008,19.104 C27.092,19.656 27.134,20.076 27.134,20.364 C27.134,21.276 26.738,21.732 25.946,21.732 C25.178,21.732 24.782,21.348 24.758,20.58 L24.722,19.392 C24.698,18.672 24.284,18.054 23.48,17.538 C22.676,17.022 21.734,16.764 20.654,16.764 C19.55,16.764 18.626,17.046 17.882,17.61 C17.138,18.174 16.766,18.876 16.766,19.716 C16.766,21.252 17.822,22.164 19.934,22.452 L22.022,22.74 C26.102,23.292 28.142,24.984 28.142,27.816 C28.142,29.544 27.482,30.942 26.162,32.01 C24.842,33.078 23.114,33.612 20.978,33.612 C18.986,33.612 17.258,33.048 15.794,31.92 C15.818,32.16 15.83,32.388 15.83,32.604 C15.83,33.468 15.422,33.9 14.606,33.9 C13.718,33.9 13.274,33.408 13.274,32.424 C13.274,32.592 13.346,31.968 13.49,30.552 C13.538,30.216 13.562,29.88 13.562,29.544 C13.562,28.968 13.514,28.428 13.418,27.924 C13.322,27.42 13.274,27.024 13.274,26.736 C13.274,25.896 13.658,25.476 14.426,25.476 C14.93,25.476 15.248,25.596 15.38,25.836 C15.512,26.076 15.59,26.712 15.614,27.744 C15.638,28.776 16.178,29.616 17.234,30.264 C18.29,30.912 19.634,31.236 21.266,31.236 C22.442,31.236 23.414,30.936 24.182,30.336 C24.95,29.736 25.334,28.98 25.334,28.068 C25.334,26.436 24.038,25.488 21.446,25.224 C18.974,24.96 17.09,24.474 15.794,23.766 C14.498,23.058 13.85,21.816 13.85,20.04 C13.85,18.36 14.486,16.998 15.758,15.954 C17.03,14.91 18.686,14.388 20.726,14.388 Z" stroke="none" fill="#000000"/><path d="M40.372,33.612 C37.852,33.612 35.836,32.742 34.324,31.002 C32.812,29.262 32.056,26.928 32.056,24 C32.056,21.072 32.818,18.738 34.342,16.998 C35.866,15.258 37.912,14.388 40.48,14.388 C43.096,14.388 45.16,15.24 46.672,16.944 C48.184,18.648 48.94,20.964 48.94,23.892 C48.94,26.82 48.16,29.172 46.6,30.948 C45.04,32.724 42.964,33.612 40.372,33.612 Z M40.552,16.764 C38.872,16.764 37.552,17.352 36.592,18.528 C35.632,19.704 35.104,21.372 35.008,23.532 C35.008,23.532 35.008,23.688 35.008,24 C35.008,26.256 35.482,28.026 36.43,29.31 C37.378,30.594 38.704,31.236 40.408,31.236 C42.16,31.236 43.534,30.594 44.53,29.31 C45.526,28.026 46.024,26.244 46.024,23.964 C46.024,19.164 44.2,16.764 40.552,16.764 Z" stroke="none" fill="#000000"/><path d="M58.506,16.116 L58.506,17.124 C59.946,15.3 61.866,14.388 64.266,14.388 C65.562,14.388 66.786,14.718 67.938,15.378 C69.09,16.038 69.87,16.86 70.278,17.844 C70.614,18.66 70.782,19.728 70.782,21.048 L70.782,27.888 C70.782,28.92 70.794,29.532 70.818,29.724 C70.938,30.54 71.262,30.948 71.79,30.948 C72.006,30.948 72.288,30.918 72.636,30.858 C72.984,30.798 73.23,30.768 73.374,30.768 C73.686,30.768 73.956,30.876 74.184,31.092 C74.412,31.308 74.526,31.572 74.526,31.884 C74.526,32.244 74.382,32.544 74.094,32.784 C73.806,33.024 73.458,33.144 73.05,33.144 C72.714,33.144 72.162,33.096 71.394,33 C70.626,32.904 69.906,32.856 69.234,32.856 C68.61,32.856 68.094,32.88 67.686,32.928 C66.486,33.072 65.85,33.144 65.778,33.144 C64.818,33.144 64.338,32.724 64.338,31.884 C64.338,31.14 64.746,30.768 65.562,30.768 C65.754,30.768 65.97,30.792 66.21,30.84 C66.666,30.936 66.954,30.984 67.074,30.984 C67.65,30.984 67.962,30.324 68.01,29.004 L68.082,27.168 L68.118,24.972 L68.118,22.236 C68.118,20.964 68.058,20.088 67.938,19.608 C67.722,18.696 67.254,17.988 66.534,17.484 C65.742,16.932 64.842,16.656 63.834,16.656 C61.914,16.656 60.534,17.34 59.694,18.708 C59.118,19.644 58.83,21.24 58.83,23.496 L58.83,28.284 C58.83,29.34 58.902,30.06 59.046,30.444 C59.19,30.828 59.454,31.02 59.838,31.02 C60.03,31.02 60.294,30.972 60.63,30.876 C60.966,30.78 61.242,30.732 61.458,30.732 C62.202,30.732 62.574,31.14 62.574,31.956 C62.574,32.748 62.094,33.144 61.134,33.144 C60.942,33.144 60.318,33.072 59.262,32.928 C58.734,32.856 58.146,32.82 57.498,32.82 C56.994,32.82 56.322,32.868 55.482,32.964 C54.426,33.084 53.826,33.144 53.682,33.144 C52.674,33.144 52.17,32.736 52.17,31.92 C52.17,31.152 52.554,30.768 53.322,30.768 C53.442,30.768 53.664,30.804 53.988,30.876 C54.312,30.948 54.63,30.984 54.942,30.984 C55.662,30.984 56.034,30.288 56.058,28.896 L56.13,24.9 L56.13,20.544 L56.058,19.284 C56.01,18.468 55.908,17.91 55.752,17.61 C55.596,17.31 55.326,17.16 54.942,17.16 C54.774,17.16 54.528,17.19 54.204,17.25 C53.88,17.31 53.634,17.34 53.466,17.34 C52.602,17.34 52.17,16.956 52.17,16.188 C52.17,15.396 52.71,15 53.79,15 C53.934,15 54.054,15.012 54.15,15.036 L55.482,15.18 C55.866,15.18 56.202,15.156 56.49,15.108 C57.114,15.06 57.438,15.036 57.462,15.036 C58.158,15.036 58.506,15.396 58.506,16.116 Z" stroke="none" fill="#000000"/><path d="M80.672,33.612 C80.048,33.612 79.52,33.39 79.088,32.946 C78.656,32.502 78.44,31.968 78.44,31.344 C78.44,30.72 78.656,30.186 79.088,29.742 C79.52,29.298 80.048,29.076 80.672,29.076 C81.296,29.076 81.824,29.298 82.256,29.742 C82.688,30.186 82.904,30.72 82.904,31.344 C82.904,31.968 82.688,32.502 82.256,32.946 C81.824,33.39 81.296,33.612 80.672,33.612 Z M80.672,21.444 C80.048,21.444 79.52,21.222 79.088,20.778 C78.656,20.334 78.44,19.8 78.44,19.176 C78.44,18.552 78.656,18.018 79.088,17.574 C79.52,17.13 80.048,16.908 80.672,16.908 C81.296,16.908 81.824,17.13 82.256,17.574 C82.688,18.018 82.904,18.552 82.904,19.176 C82.904,19.8 82.688,20.334 82.256,20.778 C81.824,21.222 81.296,21.444 80.672,21.444 Z" stroke="none" fill="#9B9B9B"/><path d="M103.738,33.468 C101.77,33.468 100.558,32.616 100.102,30.912 C98.878,32.712 96.958,33.612 94.342,33.612 C92.398,33.612 90.844,33.132 89.68,32.172 C88.516,31.212 87.934,29.928 87.934,28.32 C87.934,26.328 88.786,24.864 90.49,23.928 C91.138,23.568 91.696,23.334 92.164,23.226 C92.632,23.118 93.574,22.98 94.99,22.812 C97.006,22.596 98.32,22.296 98.932,21.912 C99.544,21.528 99.85,20.82 99.85,19.788 C99.85,18.804 99.508,18.03 98.824,17.466 C98.14,16.902 97.186,16.62 95.962,16.62 C94.882,16.62 93.874,16.92 92.938,17.52 C92.578,17.76 92.398,18.012 92.398,18.276 C92.398,18.372 92.506,18.492 92.722,18.636 C93.058,18.876 93.226,19.284 93.226,19.86 C93.226,20.34 93.052,20.736 92.704,21.048 C92.356,21.36 91.918,21.516 91.39,21.516 C90.766,21.516 90.244,21.3 89.824,20.868 C89.404,20.436 89.194,19.908 89.194,19.284 C89.194,17.94 89.86,16.788 91.192,15.828 C92.524,14.868 94.138,14.388 96.034,14.388 C100.402,14.388 102.586,16.488 102.586,20.688 L102.586,27.96 C102.586,29.112 102.61,29.796 102.658,30.012 C102.802,30.852 103.21,31.272 103.882,31.272 C104.722,31.272 105.142,30.504 105.142,28.968 L105.142,27.204 C105.142,26.436 105.514,26.052 106.258,26.052 C107.05,26.052 107.446,26.628 107.446,27.78 L107.446,27.96 L107.41,30.012 C107.362,32.316 106.138,33.468 103.738,33.468 Z M99.742,26.304 L99.778,23.748 C99.25,24.228 98.692,24.564 98.104,24.756 C97.516,24.948 96.466,25.116 94.954,25.26 C92.218,25.524 90.85,26.532 90.85,28.284 C90.85,29.196 91.18,29.916 91.84,30.444 C92.5,30.972 93.394,31.236 94.522,31.236 C96.13,31.236 97.396,30.798 98.32,29.922 C99.244,29.046 99.718,27.84 99.742,26.304 Z" stroke="none" fill="#000000"/><path d="M115.284,16.044 L115.284,17.196 C116.628,15.324 118.464,14.388 120.792,14.388 C123.192,14.388 125.1,15.216 126.516,16.872 C127.932,18.528 128.64,20.772 128.64,23.604 C128.64,26.652 127.89,29.082 126.39,30.894 C124.89,32.706 122.88,33.612 120.36,33.612 C118.272,33.612 116.58,32.88 115.284,31.416 L115.284,34.404 C115.284,35.316 115.308,35.904 115.356,36.168 C115.5,36.912 115.848,37.284 116.4,37.284 C116.568,37.284 116.82,37.248 117.156,37.176 C117.492,37.104 117.744,37.068 117.912,37.068 C118.68,37.068 119.064,37.464 119.064,38.256 C119.064,39.048 118.56,39.444 117.552,39.444 C117.192,39.444 116.652,39.396 115.932,39.3 C115.404,39.228 114.612,39.192 113.556,39.192 C112.98,39.192 112.5,39.216 112.116,39.264 C111.156,39.384 110.52,39.444 110.208,39.444 C109.8,39.444 109.452,39.318 109.164,39.066 C108.876,38.814 108.732,38.52 108.732,38.184 C108.732,37.416 109.14,37.032 109.956,37.032 C110.1,37.032 110.328,37.068 110.64,37.14 C111.048,37.236 111.348,37.284 111.54,37.284 C111.996,37.284 112.278,37.05 112.386,36.582 C112.494,36.114 112.56,34.812 112.584,32.676 L112.62,18.78 C112.596,17.676 112.284,17.124 111.684,17.124 C111.516,17.124 111.258,17.166 110.91,17.25 C110.562,17.334 110.292,17.376 110.1,17.376 C109.212,17.376 108.768,16.98 108.768,16.188 C108.768,15.42 109.296,15.036 110.352,15.036 C110.616,15.036 110.904,15.048 111.216,15.072 C111.816,15.12 112.26,15.144 112.548,15.144 C112.764,15.144 113.076,15.126 113.484,15.09 C113.892,15.054 114.192,15.036 114.384,15.036 C114.984,15.036 115.284,15.372 115.284,16.044 Z M115.824,20.436 C115.608,21.372 115.488,22.512 115.464,23.856 C115.464,23.952 115.452,24.132 115.428,24.396 C115.428,24.612 115.428,24.78 115.428,24.9 C115.428,26.508 115.56,27.678 115.824,28.41 C116.088,29.142 116.61,29.796 117.39,30.372 C118.17,30.948 119.136,31.236 120.288,31.236 C122.016,31.236 123.354,30.606 124.302,29.346 C125.25,28.086 125.724,26.292 125.724,23.964 C125.724,19.164 124.02,16.764 120.612,16.764 C119.46,16.764 118.434,17.112 117.534,17.808 C116.634,18.504 116.064,19.38 115.824,20.436 Z" stroke="none" fill="#000000"/><path d="M138.494,22.56 L138.494,27.24 C138.494,28.44 138.506,29.148 138.53,29.364 C138.65,30.444 138.974,30.984 139.502,30.984 C139.622,30.984 139.922,30.924 140.402,30.804 C140.522,30.756 140.702,30.732 140.942,30.732 C141.854,30.732 142.31,31.128 142.31,31.92 C142.31,32.256 142.16,32.544 141.86,32.784 C141.56,33.024 141.182,33.144 140.726,33.144 C140.342,33.144 139.76,33.09 138.98,32.982 C138.2,32.874 137.618,32.82 137.234,32.82 C136.61,32.82 135.914,32.868 135.146,32.964 C134.21,33.084 133.586,33.144 133.274,33.144 C132.314,33.144 131.834,32.736 131.834,31.92 C131.834,31.128 132.242,30.732 133.058,30.732 C133.25,30.732 133.532,30.768 133.904,30.84 C134.276,30.912 134.558,30.948 134.75,30.948 C135.326,30.948 135.674,30.18 135.794,28.644 C135.794,28.548 135.794,27.504 135.794,25.512 L135.794,22.56 C135.794,20.568 135.794,19.524 135.794,19.428 C135.674,17.916 135.314,17.16 134.714,17.16 C134.522,17.16 134.252,17.202 133.904,17.286 C133.556,17.37 133.298,17.412 133.13,17.412 C132.266,17.412 131.834,17.028 131.834,16.26 C131.834,15.444 132.362,15.036 133.418,15.036 C133.874,15.036 134.198,15.048 134.39,15.072 C135.158,15.168 135.65,15.216 135.866,15.216 C136.058,15.216 136.352,15.186 136.748,15.126 C137.144,15.066 137.438,15.036 137.63,15.036 C138.326,15.036 138.674,15.504 138.674,16.44 C138.674,16.536 138.662,16.68 138.638,16.872 C138.614,17.064 138.602,17.208 138.602,17.304 C138.578,17.496 138.554,18.24 138.53,19.536 C138.506,20.52 138.494,21.528 138.494,22.56 Z M136.622,13.128 C136.07,13.128 135.596,12.93 135.2,12.534 C134.804,12.138 134.606,11.664 134.606,11.112 C134.606,10.56 134.804,10.092 135.2,9.708 C135.596,9.324 136.07,9.132 136.622,9.132 C137.174,9.132 137.648,9.324 138.044,9.708 C138.44,10.092 138.638,10.56 138.638,11.112 C138.638,11.664 138.44,12.138 138.044,12.534 C137.648,12.93 137.174,13.128 136.622,13.128 Z" stroke="none" fill="#000000"/></g><g transform="translate(-7.0 -12.0)"><text transform="translate(0.0 49.0)" font-family="AmericanTypewriter, American Typewriter" font-size="54.0" font-weight="normal" fill="#9B9A9B" letter-spacing="0.9409093231689639">{</text></g><g transform="translate(163.0 -12.0)"><text transform="translate(3.059090676831037 49.0)" font-family="AmericanTypewriter, American Typewriter" font-size="54.0" font-weight="normal" fill="#9B9A9B" text-anchor="right" letter-spacing="0.9409093231689639">}</text></g></svg>
