<?xml version="1.0" encoding="UTF-8"?><svg version="1.1" width="185px" height="48px" viewBox="0 0 185.0 48.0" xmlns="http://www.w3.org/2000/svg" xmlns:xlink="http://www.w3.org/1999/xlink"><defs><clipPath id="i0"><path d="M10.548,5.868 C11.244,5.868 11.592,6.252 11.592,7.02 C11.592,7.14 11.58,7.38 11.556,7.74 C11.532,8.172 11.52,8.52 11.52,8.784 C11.496,9.168 11.46,10.032 11.412,11.376 C11.364,12.888 11.34,14.052 11.34,14.868 L11.34,23.004 C11.34,24.444 11.28,25.512 11.16,26.208 C10.944,27.336 10.512,28.296 9.864,29.088 C8.712,30.48 7.104,31.176 5.04,31.176 C3.6,31.176 2.4,30.816 1.44,30.096 C0.48,29.376 0,28.476 0,27.396 C0,26.796 0.174,26.298 0.522,25.902 C0.87,25.506 1.308,25.308 1.836,25.308 C2.292,25.308 2.682,25.458 3.006,25.758 C3.33,26.058 3.492,26.412 3.492,26.82 C3.492,27.324 3.276,27.792 2.844,28.224 C3.492,28.704 4.152,28.944 4.824,28.944 C6.168,28.944 7.134,28.548 7.722,27.756 C8.31,26.964 8.604,25.692 8.604,23.94 L8.64,12.636 C8.64,10.524 8.58,9.222 8.46,8.73 C8.34,8.238 8.016,7.992 7.488,7.992 C7.224,7.992 6.888,8.04 6.48,8.136 C6.264,8.208 6.048,8.244 5.832,8.244 C5.064,8.244 4.68,7.86 4.68,7.092 C4.68,6.3 5.184,5.904 6.192,5.904 C6.552,5.904 6.864,5.916 7.128,5.94 C7.896,6.012 8.436,6.048 8.748,6.048 C8.94,6.048 9.24,6.018 9.648,5.958 C10.056,5.898 10.356,5.868 10.548,5.868 Z M9.54,0 C10.092,0 10.572,0.198 10.98,0.594 C11.388,0.99 11.592,1.452 11.592,1.98 C11.592,2.532 11.388,3.006 10.98,3.402 C10.572,3.798 10.092,3.996 9.54,3.996 C8.988,3.996 8.514,3.798 8.118,3.402 C7.722,3.006 7.524,2.532 7.524,1.98 C7.524,1.428 7.722,0.96 8.118,0.576 C8.514,0.192 8.988,0 9.54,0 Z"></path></clipPath><clipPath id="i1"><path d="M0,18.272 C0.0159556787,18.279856 0.0871578947,17.6469474 0.216,16.38 C0.264,16.044 0.288,15.708 0.288,15.372 C0.288,14.796 0.24,14.256 0.144,13.752 C0.048,13.248 0,12.852 0,12.564 C0,11.724 0.384,11.304 1.152,11.304 C1.656,11.304 1.974,11.424 2.106,11.664 C2.238,11.904 2.316,12.54 2.34,13.572 C2.364,14.604 2.904,15.444 3.96,16.092 C5.016,16.74 6.36,17.064 7.992,17.064 C9.168,17.064 10.14,16.764 10.908,16.164 C11.676,15.564 12.06,14.808 12.06,13.896 C12.06,12.264 10.764,11.316 8.172,11.052 C5.7,10.788 3.816,10.302 2.52,9.594 C1.224,8.886 0.576,7.644 0.576,5.868 C0.576,4.188 1.212,2.826 2.484,1.782 C3.756,0.738 5.412,0.216 7.452,0.216 C9.06,0.216 10.404,0.636 11.484,1.476 L11.484,1.332 C11.484,0.444 11.868,0 12.636,0 C13.428,0 13.824,0.384 13.824,1.152 C13.824,1.296 13.8,1.656 13.752,2.232 C13.656,2.712 13.608,3.192 13.608,3.672 C13.608,3.96 13.65,4.38 13.734,4.932 C13.818,5.484 13.86,5.904 13.86,6.192 C13.86,7.104 13.464,7.56 12.672,7.56 C11.904,7.56 11.508,7.176 11.484,6.408 L11.448,5.22 C11.424,4.5 11.01,3.882 10.206,3.366 C9.402,2.85 8.46,2.592 7.38,2.592 C6.276,2.592 5.352,2.874 4.608,3.438 C3.864,4.002 3.492,4.704 3.492,5.544 C3.492,7.08 4.548,7.992 6.66,8.28 L8.748,8.568 C12.828,9.12 14.868,10.812 14.868,13.644 C14.868,15.372 14.208,16.77 12.888,17.838 C11.568,18.906 9.84,19.44 7.704,19.44 C5.712,19.44 3.984,18.876 2.52,17.748 C2.544,17.988 2.556,18.216 2.556,18.432 C2.556,19.296 2.148,19.728 1.332,19.728 C0.496235294,19.728 0.0537716263,19.2921799 0.00460899654,18.4205398 L0,18.272 Z"></path></clipPath><clipPath id="i2"><path d="M8.424,0 C11.04,0 13.104,0.852 14.616,2.556 C16.128,4.26 16.884,6.576 16.884,9.504 C16.884,12.432 16.104,14.784 14.544,16.56 C12.984,18.336 10.908,19.224 8.316,19.224 C5.796,19.224 3.78,18.354 2.268,16.614 C0.756,14.874 0,12.54 0,9.612 C0,6.684 0.762,4.35 2.286,2.61 C3.81,0.87 5.856,0 8.424,0 Z M8.496,2.376 C6.816,2.376 5.496,2.964 4.536,4.14 C3.576,5.316 3.048,6.984 2.952,9.144 L2.952,9.612 C2.952,11.868 3.426,13.638 4.374,14.922 C5.322,16.206 6.648,16.848 8.352,16.848 C10.104,16.848 11.478,16.206 12.474,14.922 C13.47,13.638 13.968,11.856 13.968,9.576 C13.968,4.776 12.144,2.376 8.496,2.376 Z"></path></clipPath><clipPath id="i3"><path d="M12.096,0 C13.392,0 14.616,0.33 15.768,0.99 C16.92,1.65 17.7,2.472 18.108,3.456 C18.444,4.272 18.612,5.34 18.612,6.66 L18.6128521,13.9464852 C18.6159763,14.7103669 18.6276923,15.1735385 18.648,15.336 C18.768,16.152 19.092,16.56 19.62,16.56 C19.836,16.56 20.118,16.53 20.466,16.47 C20.814,16.41 21.06,16.38 21.204,16.38 C21.516,16.38 21.786,16.488 22.014,16.704 C22.242,16.92 22.356,17.184 22.356,17.496 C22.356,17.856 22.212,18.156 21.924,18.396 C21.636,18.636 21.288,18.756 20.88,18.756 C20.544,18.756 19.992,18.708 19.224,18.612 C18.456,18.516 17.736,18.468 17.064,18.468 C16.44,18.468 15.924,18.492 15.516,18.54 C14.316,18.684 13.68,18.756 13.608,18.756 C12.648,18.756 12.168,18.336 12.168,17.496 C12.168,16.752 12.576,16.38 13.392,16.38 C13.584,16.38 13.8,16.404 14.04,16.452 C14.496,16.548 14.784,16.596 14.904,16.596 C15.48,16.596 15.792,15.936 15.84,14.616 L15.912,12.78 L15.948,10.584 L15.948,7.848 C15.948,6.576 15.888,5.7 15.768,5.22 C15.552,4.308 15.084,3.6 14.364,3.096 C13.572,2.544 12.672,2.268 11.664,2.268 C9.744,2.268 8.364,2.952 7.524,4.32 C6.948,5.256 6.66,6.852 6.66,9.108 L6.66,13.896 C6.66,14.952 6.732,15.672 6.876,16.056 C7.02,16.44 7.284,16.632 7.668,16.632 C7.86,16.632 8.124,16.584 8.46,16.488 C8.796,16.392 9.072,16.344 9.288,16.344 C10.032,16.344 10.404,16.752 10.404,17.568 C10.404,18.36 9.924,18.756 8.964,18.756 C8.772,18.756 8.148,18.684 7.092,18.54 C6.564,18.468 5.976,18.432 5.328,18.432 C4.824,18.432 4.152,18.48 3.312,18.576 C2.256,18.696 1.656,18.756 1.512,18.756 C0.504,18.756 0,18.348 0,17.532 C0,16.764 0.384,16.38 1.152,16.38 C1.272,16.38 1.494,16.416 1.818,16.488 C2.142,16.56 2.46,16.596 2.772,16.596 C3.492,16.596 3.864,15.9 3.888,14.508 L3.96,10.512 L3.96,6.156 L3.888,4.896 C3.84,4.08 3.738,3.522 3.582,3.222 C3.426,2.922 3.156,2.772 2.772,2.772 C2.604,2.772 2.358,2.802 2.034,2.862 C1.71,2.922 1.464,2.952 1.296,2.952 C0.432,2.952 0,2.568 0,1.8 C0,1.008 0.54,0.612 1.62,0.612 C1.764,0.612 1.884,0.624 1.98,0.648 L3.312,0.792 C3.696,0.792 4.032,0.768 4.32,0.72 C4.944,0.672 5.268,0.648 5.292,0.648 C5.988,0.648 6.336,1.008 6.336,1.728 L6.336,2.736 C7.776,0.912 9.696,0 12.096,0 Z"></path></clipPath><clipPath id="i4"><path d="M2.232,12.168 C2.856,12.168 3.384,12.39 3.816,12.834 C4.248,13.278 4.464,13.812 4.464,14.436 C4.464,15.06 4.248,15.594 3.816,16.038 C3.384,16.482 2.856,16.704 2.232,16.704 C1.608,16.704 1.08,16.482 0.648,16.038 C0.216,15.594 0,15.06 0,14.436 C0,13.812 0.216,13.278 0.648,12.834 C1.08,12.39 1.608,12.168 2.232,12.168 Z M2.232,0 C2.856,0 3.384,0.222 3.816,0.666 C4.248,1.11 4.464,1.644 4.464,2.268 C4.464,2.892 4.248,3.426 3.816,3.87 C3.384,4.314 2.856,4.536 2.232,4.536 C1.608,4.536 1.08,4.314 0.648,3.87 C0.216,3.426 0,2.892 0,2.268 C0,1.644 0.216,1.11 0.648,0.666 C1.08,0.222 1.608,0 2.232,0 Z"></path></clipPath><clipPath id="i5"><path d="M8.1,0 C12.468,0 14.652,2.1 14.652,6.3 L14.652,13.572 C14.652,14.724 14.676,15.408 14.724,15.624 C14.868,16.464 15.276,16.884 15.948,16.884 C16.788,16.884 17.208,16.116 17.208,14.58 L17.208,12.816 C17.208,12.048 17.58,11.664 18.324,11.664 C19.116,11.664 19.512,12.24 19.512,13.392 L19.512,13.572 L19.476,15.624 C19.428,17.928 18.204,19.08 15.804,19.08 C13.836,19.08 12.624,18.228 12.168,16.524 C10.944,18.324 9.024,19.224 6.408,19.224 C4.464,19.224 2.91,18.744 1.746,17.784 C0.582,16.824 0,15.54 0,13.932 C0,11.94 0.852,10.476 2.556,9.54 C3.204,9.18 3.762,8.946 4.23,8.838 C4.698,8.73 5.64,8.592 7.056,8.424 C9.072,8.208 10.386,7.908 10.998,7.524 C11.61,7.14 11.916,6.432 11.916,5.4 C11.916,4.416 11.574,3.642 10.89,3.078 C10.206,2.514 9.252,2.232 8.028,2.232 C6.948,2.232 5.94,2.532 5.004,3.132 C4.644,3.372 4.464,3.624 4.464,3.888 C4.464,3.984 4.572,4.104 4.788,4.248 C5.124,4.488 5.292,4.896 5.292,5.472 C5.292,5.952 5.118,6.348 4.77,6.66 C4.422,6.972 3.984,7.128 3.456,7.128 C2.832,7.128 2.31,6.912 1.89,6.48 C1.47,6.048 1.26,5.52 1.26,4.896 C1.26,3.552 1.926,2.4 3.258,1.44 C4.59,0.48 6.204,0 8.1,0 Z M11.844,9.36 C11.316,9.84 10.758,10.176 10.17,10.368 C9.582,10.56 8.532,10.728 7.02,10.872 C4.284,11.136 2.916,12.144 2.916,13.896 C2.916,14.808 3.246,15.528 3.906,16.056 C4.566,16.584 5.46,16.848 6.588,16.848 C8.196,16.848 9.462,16.41 10.386,15.534 C11.31,14.658 11.784,13.452 11.808,11.916 L11.844,9.36 Z"></path></clipPath><clipPath id="i6"><path d="M12.06,0 C14.46,0 16.368,0.828 17.784,2.484 C19.2,4.14 19.908,6.384 19.908,9.216 C19.908,12.264 19.158,14.694 17.658,16.506 C16.158,18.318 14.148,19.224 11.628,19.224 C9.54,19.224 7.848,18.492 6.552,17.028 L6.552,20.016 C6.552,20.928 6.576,21.516 6.624,21.78 C6.768,22.524 7.116,22.896 7.668,22.896 C7.836,22.896 8.088,22.86 8.424,22.788 C8.76,22.716 9.012,22.68 9.18,22.68 C9.948,22.68 10.332,23.076 10.332,23.868 C10.332,24.66 9.828,25.056 8.82,25.056 C8.46,25.056 7.92,25.008 7.2,24.912 C6.672,24.84 5.88,24.804 4.824,24.804 C4.248,24.804 3.768,24.828 3.384,24.876 C2.424,24.996 1.788,25.056 1.476,25.056 C1.068,25.056 0.72,24.93 0.432,24.678 C0.144,24.426 0,24.132 0,23.796 C0,23.028 0.408,22.644 1.224,22.644 C1.368,22.644 1.596,22.68 1.908,22.752 C2.316,22.848 2.616,22.896 2.808,22.896 C3.264,22.896 3.546,22.662 3.654,22.194 C3.762,21.726 3.828,20.424 3.852,18.288 L3.888,4.392 C3.864,3.288 3.552,2.736 2.952,2.736 C2.784,2.736 2.526,2.778 2.178,2.862 C1.83,2.946 1.56,2.988 1.368,2.988 C0.48,2.988 0.036,2.592 0.036,1.8 C0.036,1.032 0.564,0.648 1.62,0.648 C1.884,0.648 2.172,0.66 2.484,0.684 C3.084,0.732 3.528,0.756 3.816,0.756 C4.032,0.756 4.344,0.738 4.752,0.702 C5.16,0.666 5.46,0.648 5.652,0.648 C6.252,0.648 6.552,0.984 6.552,1.656 L6.552,2.808 C7.896,0.936 9.732,0 12.06,0 Z M11.88,2.376 C10.728,2.376 9.702,2.724 8.802,3.42 C7.902,4.116 7.332,4.992 7.092,6.048 C6.876,6.984 6.756,8.124 6.732,9.468 C6.732,9.564 6.72,9.744 6.696,10.008 L6.696,10.512 C6.696,12.12 6.828,13.29 7.092,14.022 C7.356,14.754 7.878,15.408 8.658,15.984 C9.438,16.56 10.404,16.848 11.556,16.848 C13.284,16.848 14.622,16.218 15.57,14.958 C16.518,13.698 16.992,11.904 16.992,9.576 C16.992,4.776 15.288,2.376 11.88,2.376 Z"></path></clipPath><clipPath id="i7"><path d="M2.556,5.94 C3.324,6.036 3.816,6.084 4.032,6.084 C4.224,6.084 4.518,6.054 4.914,5.994 C5.31,5.934 5.604,5.904 5.796,5.904 C6.492,5.904 6.84,6.372 6.84,7.308 C6.84,7.404 6.828,7.548 6.804,7.74 C6.78,7.932 6.768,8.076 6.768,8.172 C6.744,8.364 6.72,9.108 6.696,10.404 C6.672,11.388 6.66,12.396 6.66,13.428 L6.66,18.108 C6.66,19.308 6.672,20.016 6.696,20.232 C6.816,21.312 7.14,21.852 7.668,21.852 C7.788,21.852 8.088,21.792 8.568,21.672 C8.688,21.624 8.868,21.6 9.108,21.6 C10.02,21.6 10.476,21.996 10.476,22.788 C10.476,23.124 10.326,23.412 10.026,23.652 C9.726,23.892 9.348,24.012 8.892,24.012 C8.508,24.012 7.926,23.958 7.146,23.85 C6.366,23.742 5.784,23.688 5.4,23.688 C4.776,23.688 4.08,23.736 3.312,23.832 C2.376,23.952 1.752,24.012 1.44,24.012 C0.48,24.012 0,23.604 0,22.788 C0,21.996 0.408,21.6 1.224,21.6 C1.416,21.6 1.698,21.636 2.07,21.708 C2.442,21.78 2.724,21.816 2.916,21.816 C3.492,21.816 3.84,21.048 3.96,19.512 L3.96,10.296 C3.84,8.784 3.48,8.028 2.88,8.028 C2.688,8.028 2.418,8.07 2.07,8.154 C1.722,8.238 1.464,8.28 1.296,8.28 C0.432,8.28 0,7.896 0,7.128 C0,6.312 0.528,5.904 1.584,5.904 C2.04,5.904 2.364,5.916 2.556,5.94 Z M4.788,0 C5.34,0 5.814,0.192 6.21,0.576 C6.606,0.96 6.804,1.428 6.804,1.98 C6.804,2.532 6.606,3.006 6.21,3.402 C5.814,3.798 5.34,3.996 4.788,3.996 C4.236,3.996 3.762,3.798 3.366,3.402 C2.97,3.006 2.772,2.532 2.772,1.98 C2.772,1.428 2.97,0.96 3.366,0.576 C3.762,0.192 4.236,0 4.788,0 Z"></path></clipPath><clipPath id="i8"><path d="M12.204,0 L12.204,3.402 C10.116,3.438 8.73,3.762 8.046,4.374 C7.362,4.986 7.02,6.228 7.02,8.1 L7.02,17.118 C7.02,18.882 6.786,20.205 6.318,21.087 C5.85,21.969 4.986,22.752 3.726,23.436 C4.95,24.084 5.805,24.885 6.291,25.839 C6.777,26.793 7.02,28.116 7.02,29.808 L7.02,38.502 C7.02,40.482 7.362,41.787 8.046,42.417 C8.73,43.047 10.116,43.362 12.204,43.362 L12.204,46.764 L10.638,46.764 C7.902,46.764 5.958,46.161 4.806,44.955 C3.654,43.749 3.078,41.706 3.078,38.826 L3.078,29.916 C3.078,28.368 2.844,27.216 2.376,26.46 C1.908,25.704 1.116,25.182 0,24.894 L0,21.708 C2.052,21.132 3.078,19.53 3.078,16.902 L3.078,7.398 C3.078,4.77 3.681,2.88 4.887,1.728 C6.093,0.576 8.028,0 10.692,0 L12.204,0 Z"></path></clipPath><clipPath id="i9"><path d="M1.512,0 C4.248,0 6.201,0.603 7.371,1.809 C8.541,3.015 9.126,5.058 9.126,7.938 L9.126,16.848 C9.126,19.692 10.152,21.366 12.204,21.87 L12.204,25.056 C10.152,25.632 9.126,27.234 9.126,29.862 L9.126,39.366 C9.126,41.994 8.532,43.884 7.344,45.036 C6.156,46.188 4.212,46.764 1.512,46.764 L0,46.764 L0,43.362 C2.088,43.326 3.474,43.002 4.158,42.39 C4.842,41.778 5.184,40.536 5.184,38.664 L5.184,29.646 C5.184,27.918 5.418,26.604 5.886,25.704 C6.354,24.804 7.218,24.012 8.478,23.328 C7.254,22.68 6.399,21.879 5.913,20.925 C5.427,19.971 5.184,18.648 5.184,16.956 L5.184,8.262 C5.184,6.282 4.842,4.977 4.158,4.347 C3.474,3.717 2.088,3.402 0,3.402 L0,0 L1.512,0 Z"></path></clipPath></defs><g transform="translate(0.8299999999999983 0.387999999999991)"><g transform="translate(18.102000000000004 7.744000000000009)"><g transform=""><g clip-path="url(#i0)"><polygon points="0,0 11.592,0 11.592,31.176 0,31.176 0,0" stroke="none" fill="#000000"></polygon></g></g><g transform="translate(17.342 5.040000000000003)"><g clip-path="url(#i1)"><polygon points="0,0 14.868,0 14.868,19.728 0,19.728 0,0" stroke="none" fill="#000000"></polygon></g></g><g transform="translate(36.123999999999995 5.256000000000004)"><g clip-path="url(#i2)"><polygon points="0,0 16.884,0 16.884,19.224 0,19.224 0,0" stroke="none" fill="#000000"></polygon></g></g><g transform="translate(56.238 5.256000000000004)"><g clip-path="url(#i3)"><polygon points="0,0 22.356,0 22.356,18.756 0,18.756 0,0" stroke="none" fill="#000000"></polygon></g></g><g transform="translate(82.508 7.776000000000003)"><g clip-path="url(#i4)"><polygon points="0,0 4.464,0 4.464,16.704 0,16.704 0,0" stroke="none" fill="#9B9B9B"></polygon></g></g><g transform="translate(92.002 5.256000000000004)"><g clip-path="url(#i5)"><polygon points="0,0 19.512,0 19.512,19.224 0,19.224 0,0" stroke="none" fill="#000000"></polygon></g></g><g transform="translate(112.8 5.256000000000006)"><g clip-path="url(#i6)"><polygon points="0,0 19.908,0 19.908,25.056 0,25.056 0,0" stroke="none" fill="#000000"></polygon></g></g><g transform="translate(135.902 3.552713678800501e-15)"><g clip-path="url(#i7)"><polygon points="0,0 10.476,0 10.476,24.012 0,24.012 0,0" stroke="none" fill="#000000"></polygon></g></g></g><g transform=""><g clip-path="url(#i8)"><polygon points="0,0 12.204,0 12.204,46.764 0,46.764 0,0" stroke="none" fill="#9B9A9B"></polygon></g></g><g transform="translate(171.78909067683102 0.0)"><g transform=""><g clip-path="url(#i9)"><polygon points="0,0 12.204,0 12.204,46.764 0,46.764 0,0" stroke="none" fill="#9B9A9B"></polygon></g></g></g></g></svg>