<?xml version="1.0" encoding="UTF-8" standalone="no"?>
<svg width="297px" height="73px" viewBox="0 0 297 73" version="1.1" xmlns="http://www.w3.org/2000/svg" xmlns:xlink="http://www.w3.org/1999/xlink" xmlns:sketch="http://www.bohemiancoding.com/sketch/ns">
    <!-- Generator: Sketch 3.2.2 (9983) - http://www.bohemiancoding.com/sketch -->
    <title>JSON:API + { + }</title>
    <desc>Created with Sketch.</desc>
    <defs></defs>
    <g id="Page-1" stroke="none" stroke-width="1" fill="none" fill-rule="evenodd" sketch:type="MSPage">
        <g id="Logos" sketch:type="MSArtboardGroup" transform="translate(-142.000000, -108.000000)" fill="#52008E">
            <g id="JSON:API-+-{-+-}" sketch:type="MSLayerGroup" transform="translate(142.000000, 108.000000)">
                <path d="M53.6427354,42.5682346 L53.6427354,17.5691819 L45.6164547,17.5691819 L45.6164547,42.2103749 C45.6164547,42.8579337 45.5908935,43.5310439 45.5397704,44.2297258 C45.4886474,44.9284076 45.3352805,45.5759567 45.0796652,46.1723925 C44.8240499,46.7688282 44.4065511,47.25449 43.8271564,47.6293925 C43.2477617,48.0042949 42.429805,48.1917433 41.3732617,48.1917433 C40.4189645,48.1917433 39.6436097,48.0383764 39.047174,47.7316381 C38.4507382,47.4248997 37.9821172,47.0074009 37.6412968,46.4791293 C37.3004763,45.9508577 37.0619056,45.311829 36.9255775,44.562024 C36.7892493,43.8122191 36.7210862,42.9942624 36.7210862,42.1081293 L36.7210862,40.4721995 L29.4616476,40.4721995 L29.4616476,43.6418135 C29.4616476,45.652654 29.8024629,47.3652509 30.4841038,48.7796556 C31.1657446,50.1940603 32.0689052,51.3528324 33.1936125,52.2560065 C34.3183199,53.1591806 35.5963773,53.8237704 37.0278231,54.249796 C38.4592688,54.6758215 39.9418154,54.8888311 41.4755073,54.8888311 C44.2020706,54.8888311 46.3662478,54.4713323 47.9681038,53.6363223 C49.5699597,52.8013123 50.7968948,51.7618256 51.6489459,50.5178311 C52.5009969,49.2738365 53.0463014,47.9361365 53.2848757,46.5046907 C53.52345,45.0732449 53.6427354,43.761106 53.6427354,42.5682346 L53.6427354,42.5682346 Z M66.1678231,41.9547609 L58.3971564,41.9547609 C58.3630744,44.2041756 58.7720527,46.1468229 59.6241038,47.7827609 C60.4761548,49.4186989 61.6264065,50.7649193 63.0748933,51.8214626 C64.52338,52.8780059 66.193375,53.6533607 68.0849283,54.1475504 C69.9764817,54.64174 71.9276493,54.8888311 73.9384897,54.8888311 C76.4264788,54.8888311 78.6162171,54.599138 80.5077704,54.0197433 C82.3993238,53.4403486 83.9841149,52.6309123 85.2621915,51.59141 C86.5402681,50.5519077 87.5030713,49.3164522 88.1506301,47.8850065 C88.7981889,46.4535607 89.1219634,44.9028511 89.1219634,43.2328311 C89.1219634,41.1879085 88.6874239,39.5093932 87.8183318,38.1972346 C86.9492398,36.885076 85.9182735,35.8370689 84.725402,35.0531819 C83.5325306,34.269295 82.3311566,33.6984293 81.1212441,33.3405679 C79.9113316,32.9827065 78.9655692,32.7356154 78.2839283,32.5992872 C76.0004315,32.0198925 74.1515085,31.5427511 72.7371038,31.1678486 C71.322699,30.7929461 70.2150493,30.4180493 69.4141213,30.0431468 C68.6131933,29.6682444 68.0764092,29.259266 67.8037529,28.8161995 C67.5310966,28.3731329 67.3947704,27.7937469 67.3947704,27.078024 C67.3947704,26.2941371 67.5651781,25.646588 67.9059985,25.1353574 C68.2468189,24.6241267 68.6813584,24.1981076 69.2096301,23.8572872 C69.7379017,23.5164668 70.3258081,23.2778961 70.9733669,23.1415679 C71.6209257,23.0052397 72.2684748,22.9370767 72.9160336,22.9370767 C73.9044128,22.9370767 74.8160938,23.0222805 75.6511038,23.1926907 C76.4861138,23.3631009 77.2273871,23.6527939 77.8749459,24.0617784 C78.5225047,24.4707629 79.042248,25.0331082 79.4341915,25.7488311 C79.826135,26.4645539 80.0561853,27.3677145 80.1243494,28.4583398 L87.8950161,28.4583398 C87.8950161,26.3452532 87.4945581,24.5474525 86.6936301,23.0648837 C85.8927021,21.5823149 84.8106135,20.3639002 83.4473318,19.409603 C82.0840502,18.4553058 80.5248202,17.7651548 78.769595,17.3391293 C77.0143699,16.9131038 75.1824876,16.7000942 73.2738933,16.7000942 C71.6379552,16.7000942 70.0020418,16.9216242 68.3661038,17.3646907 C66.7301658,17.8077572 65.26466,18.4893879 63.9695424,19.409603 C62.6744248,20.3298181 61.6264177,21.4800698 60.8254897,22.8603925 C60.0245618,24.2407151 59.6241038,25.8681082 59.6241038,27.7426205 C59.6241038,29.4126406 59.9393579,30.8355445 60.5698757,32.0113749 C61.2003935,33.1872054 62.0268706,34.1670494 63.0493318,34.9509363 C64.0717931,35.7348233 65.2305651,36.373852 66.5256827,36.8680416 C67.8208003,37.3622312 69.14998,37.7797299 70.5132617,38.1205504 C71.8424613,38.4954528 73.1546002,38.8362681 74.4497178,39.1430065 C75.7448354,39.4497449 76.9036074,39.8076009 77.9260687,40.2165854 C78.9485299,40.6255699 79.7750071,41.1367929 80.4055248,41.7502697 C81.0360426,42.3637464 81.3512968,43.1646624 81.3512968,44.1530416 C81.3512968,45.0732567 81.112726,45.8315708 80.6355775,46.4280065 C80.1584289,47.0244422 79.5620021,47.4930633 78.8462792,47.8338837 C78.1305563,48.1747041 77.3637219,48.4047544 76.5457529,48.5240416 C75.7277839,48.6433287 74.9609495,48.7029714 74.2452266,48.7029714 C73.1886833,48.7029714 72.1662374,48.5751657 71.1778582,48.3195504 C70.189479,48.063935 69.3289203,47.6719974 68.5961564,47.1437258 C67.8633925,46.6154541 67.2754861,45.9253032 66.8324196,45.0732521 C66.389353,44.2212011 66.1678231,43.1817144 66.1678231,41.9547609 L66.1678231,41.9547609 Z M100.317858,35.9733925 C100.317858,34.3715365 100.496786,32.8208269 100.854648,31.321217 C101.212509,29.8216072 101.783375,28.4839071 102.567262,27.3080767 C103.351149,26.1322462 104.373595,25.1950041 105.63463,24.4963223 C106.895666,23.7976404 108.429335,23.4483047 110.235683,23.4483047 C112.042031,23.4483047 113.5757,23.7976404 114.836735,24.4963223 C116.097771,25.1950041 117.120217,26.1322462 117.904104,27.3080767 C118.687991,28.4839071 119.258856,29.8216072 119.616718,31.321217 C119.974579,32.8208269 120.153507,34.3715365 120.153507,35.9733925 C120.153507,37.5070843 119.974579,38.9981513 119.616718,40.4466381 C119.258856,41.8951248 118.687991,43.1987434 117.904104,44.3575328 C117.120217,45.5163222 116.097771,46.4450439 114.836735,47.1437258 C113.5757,47.8424076 112.042031,48.1917433 110.235683,48.1917433 C108.429335,48.1917433 106.895666,47.8424076 105.63463,47.1437258 C104.373595,46.4450439 103.351149,45.5163222 102.567262,44.3575328 C101.783375,43.1987434 101.212509,41.8951248 100.854648,40.4466381 C100.496786,38.9981513 100.317858,37.5070843 100.317858,35.9733925 L100.317858,35.9733925 Z M92.2915775,35.9733925 C92.2915775,38.6317917 92.7005558,41.1112231 93.5185248,43.4117609 C94.3364938,45.7122987 95.5123066,47.7145886 97.0459985,49.4186907 C98.5796904,51.1227928 100.462695,52.4604929 102.695069,53.4318311 C104.927442,54.4031692 107.440955,54.8888311 110.235683,54.8888311 C113.064492,54.8888311 115.586525,54.4031692 117.801858,53.4318311 C120.017191,52.4604929 121.891675,51.1227928 123.425367,49.4186907 C124.959059,47.7145886 126.134872,45.7122987 126.952841,43.4117609 C127.77081,41.1112231 128.179788,38.6317917 128.179788,35.9733925 C128.179788,33.2468291 127.77081,30.7162755 126.952841,28.3816556 C126.134872,26.0470358 124.959059,24.0106643 123.425367,22.2724802 C121.891675,20.534296 120.017191,19.1710348 117.801858,18.1826556 C115.586525,17.1942764 113.064492,16.7000942 110.235683,16.7000942 C107.440955,16.7000942 104.927442,17.1942764 102.695069,18.1826556 C100.462695,19.1710348 98.5796904,20.534296 97.0459985,22.2724802 C95.5123066,24.0106643 94.3364938,26.0470358 93.5185248,28.3816556 C92.7005558,30.7162755 92.2915775,33.2468291 92.2915775,35.9733925 L92.2915775,35.9733925 Z M133.649928,17.5691819 L133.649928,54.0708661 L141.164981,54.0708661 L141.164981,29.6341644 L141.267227,29.6341644 L156.4507,54.0708661 L164.476981,54.0708661 L164.476981,17.5691819 L156.961928,17.5691819 L156.961928,42.0570065 L156.859683,42.0570065 L141.625086,17.5691819 L133.649928,17.5691819 Z M179.149227,35.9733925 L179.149227,28.1004802 L171.122946,28.1004802 L171.122946,35.9733925 L179.149227,35.9733925 Z M171.122946,46.1979539 L171.122946,54.0708661 L179.149227,54.0708661 L179.149227,46.1979539 L171.122946,46.1979539 Z M194.946174,39.9609714 L199.700595,26.566796 L199.802841,26.566796 L204.403893,39.9609714 L194.946174,39.9609714 Z M195.713016,17.5691819 L181.909858,54.0708661 L189.987262,54.0708661 L192.850139,45.9423398 L206.499928,45.9423398 L209.26056,54.0708661 L217.593577,54.0708661 L203.943788,17.5691819 L195.713016,17.5691819 Z M228.789472,34.7464451 L228.789472,23.8061644 L235.026455,23.8061644 C235.94667,23.8061644 236.83279,23.8743274 237.684841,24.0106556 C238.536892,24.1469838 239.286685,24.4111156 239.934244,24.8030591 C240.581803,25.1950026 241.101546,25.7488275 241.49349,26.4645504 C241.885433,27.1802732 242.081402,28.1175153 242.081402,29.2763047 C242.081402,30.4350942 241.885433,31.3723362 241.49349,32.0880591 C241.101546,32.803782 240.581803,33.3576069 239.934244,33.7495504 C239.286685,34.1414938 238.536892,34.4056257 237.684841,34.5419539 C236.83279,34.678282 235.94667,34.7464451 235.026455,34.7464451 L228.789472,34.7464451 Z M220.763191,17.5691819 L220.763191,54.0708661 L228.789472,54.0708661 L228.789472,40.9834275 L237.224735,40.9834275 C239.508232,40.9834275 241.450879,40.6511326 243.052735,39.9865328 C244.654591,39.321933 245.95821,38.4443336 246.96363,37.3537082 C247.96905,36.2630829 248.701803,35.0105867 249.161911,33.5961819 C249.622018,32.1817772 249.852069,30.7418325 249.852069,29.2763047 C249.852069,27.7766949 249.622018,26.3282299 249.161911,24.9308661 C248.701803,23.5335024 247.96905,22.2895266 246.96363,21.1989012 C245.95821,20.1082759 244.654591,19.2306765 243.052735,18.5660767 C241.450879,17.9014769 239.508232,17.5691819 237.224735,17.5691819 L220.763191,17.5691819 Z M254.862104,17.5691819 L254.862104,54.0708661 L262.888384,54.0708661 L262.888384,17.5691819 L254.862104,17.5691819 Z" id="JSON:API" sketch:type="MSShapeGroup"></path>
                <path d="M20.7151418,5.50207079 L20.7151418,0.897188889 L15.3427796,0.897188889 C14.370633,0.897188889 13.3985009,1.11463947 12.4263544,1.54954716 C11.4542078,1.98445484 10.5716142,2.62401538 9.77854726,3.46824795 C8.98548031,4.31248052 8.33312856,5.36135979 7.82147246,6.61491724 C7.30981636,7.86847469 7.05399214,9.3138815 7.05399214,10.951181 L7.05399214,24.9193228 C7.05399214,26.2496287 6.87491519,27.4775849 6.51675592,28.6032283 C6.15859665,29.7288717 5.68532185,30.6882125 5.09691734,31.4812795 C4.50851282,32.2743464 3.83057865,32.8883246 3.0630945,33.3232322 C2.29561034,33.7581399 1.50255528,33.9755905 0.683905518,33.9755905 L0.683905518,39.1944567 C1.50255528,39.1944567 2.29561034,39.399116 3.0630945,39.8084409 C3.83057865,40.2177658 4.50851282,40.8061615 5.09691734,41.5736456 C5.68532185,42.3411298 6.15859665,43.2876794 6.51675592,44.4133228 C6.87491519,45.5389662 7.05399214,46.7925049 7.05399214,48.1739764 L7.05399214,62.0653701 C7.05399214,63.7026696 7.30981636,65.1480764 7.82147246,66.4016339 C8.33312856,67.6551913 8.98548031,68.7040706 9.77854726,69.5483032 C10.5716142,70.3925357 11.4542078,71.0320963 12.4263544,71.467004 C13.3985009,71.9019116 14.370633,72.1193622 15.3427796,72.1193622 L20.7151418,72.1193622 L20.7151418,67.5144803 L16.8777402,67.5144803 C16.110256,67.5144803 15.4962779,67.3226122 15.0357874,66.9388701 C14.5752969,66.555128 14.2043518,66.0434796 13.922941,65.4039095 C13.6415301,64.7643393 13.449662,64.0480315 13.3473307,63.2549646 C13.2449995,62.4618976 13.1938347,61.6816338 13.1938347,60.9141496 L13.1938347,46.9460079 C13.1938347,45.0017147 12.9252192,43.3900221 12.3879803,42.1108819 C11.8507414,40.8317416 11.2239721,39.7956535 10.5076536,39.0025866 C9.79133502,38.2095196 9.06223601,37.6339151 8.32033466,37.2757559 C7.57843331,36.9175966 6.97724641,36.7129372 6.51675592,36.6617716 L6.51675592,36.4315275 C6.97724641,36.3291963 7.57843331,36.0733721 8.32033466,35.6640472 C9.06223601,35.2547223 9.79133502,34.6407442 10.5076536,33.8220945 C11.2239721,33.0034447 11.8507414,31.9673566 12.3879803,30.7137992 C12.9252192,29.4602417 13.1938347,27.9380876 13.1938347,26.1472913 L13.1938347,12.1024015 C13.1938347,11.2837517 13.2449995,10.4779055 13.3473307,9.68483851 C13.449662,8.89177155 13.6415301,8.18825496 13.922941,7.57426764 C14.2043518,6.96028032 14.5752969,6.4614231 15.0357874,6.07768102 C15.4962779,5.69393895 16.110256,5.50207079 16.8777402,5.50207079 L20.7151418,5.50207079 Z" id="{" opacity="0.39" sketch:type="MSShapeGroup"></path>
                <path d="M276.307751,67.5144803 L276.307751,72.1193622 L281.680113,72.1193622 C282.65226,72.1193622 283.624392,71.9019116 284.596538,71.467004 C285.568685,71.0320963 286.451278,70.3925357 287.244345,69.5483032 C288.037412,68.7040706 288.689764,67.6551913 289.20142,66.4016339 C289.713076,65.1480764 289.9689,63.7026696 289.9689,62.0653701 L289.9689,48.1739764 C289.9689,46.8436705 290.147977,45.6285055 290.506137,44.5284449 C290.864296,43.4283842 291.337571,42.4818347 291.925975,41.6887677 C292.51438,40.8957007 293.192314,40.2817226 293.959798,39.8468149 C294.727282,39.4119072 295.520337,39.1944567 296.338987,39.1944567 L296.338987,33.9755905 C295.520337,33.9755905 294.727282,33.7709311 293.959798,33.3616063 C293.192314,32.9522814 292.51438,32.3510945 291.925975,31.5580275 C291.337571,30.7649606 290.864296,29.8056198 290.506137,28.6799763 C290.147977,27.5543329 289.9689,26.3007943 289.9689,24.9193228 L289.9689,10.951181 C289.9689,9.3138815 289.713076,7.86847469 289.20142,6.61491724 C288.689764,5.36135979 288.037412,4.31248052 287.244345,3.46824795 C286.451278,2.62401538 285.568685,1.98445484 284.596538,1.54954716 C283.624392,1.11463947 282.65226,0.897188889 281.680113,0.897188889 L276.307751,0.897188889 L276.307751,5.50207079 L280.145152,5.50207079 C280.912637,5.50207079 281.526615,5.69393895 281.987105,6.07768102 C282.447596,6.4614231 282.818541,6.97307153 283.099952,7.61264165 C283.381362,8.25221178 283.573231,8.96851958 283.675562,9.76158654 C283.777893,10.5546535 283.829058,11.3860822 283.829058,12.2558976 L283.829058,26.1472913 C283.829058,28.0915845 284.097673,29.703277 284.634912,30.9824173 C285.172151,32.2615575 285.79892,33.2976456 286.515239,34.0907126 C287.231558,34.8837795 287.960657,35.459384 288.702558,35.8175433 C289.444459,36.1757025 290.045646,36.3803619 290.506137,36.4315275 L290.506137,36.6617716 C290.045646,36.7641028 289.444459,37.0199271 288.702558,37.4292519 C287.960657,37.8385768 287.231558,38.4525549 286.515239,39.2712047 C285.79892,40.0898545 285.172151,41.1259425 284.634912,42.3795 C284.097673,43.6330574 283.829058,45.1552115 283.829058,46.9460079 L283.829058,60.9141496 C283.829058,61.7327994 283.777893,62.5386456 283.675562,63.3317126 C283.573231,64.1247796 283.381362,64.8282962 283.099952,65.4422835 C282.818541,66.0562708 282.447596,66.555128 281.987105,66.9388701 C281.526615,67.3226122 280.912637,67.5144803 280.145152,67.5144803 L276.307751,67.5144803 Z" id="}" opacity="0.39" sketch:type="MSShapeGroup"></path>
            </g>
        </g>
    </g>
</svg>