<svg xmlns="http://www.w3.org/2000/svg" xmlns:xlink="http://www.w3.org/1999/xlink" width="321" height="107" viewBox="0 0 321 107" version="1.1">
  <title>
    Logo 2
  </title>
  <desc>
    Created with Sketch.
  </desc>
  <g id="Page-1" stroke="none" stroke-width="1" fill="none" fill-rule="evenodd">
    <g id="Logos" transform="translate(-547.000000, -110.000000)" fill="#FFFFFF">
      <g id="Logo-2" transform="translate(547.000000, 110.000000)">
        <path d="M64.64 43.57L64.64 18.57 56.62 18.57 56.62 43.21C56.62 43.86 56.59 44.53 56.54 45.23 56.49 45.93 56.34 46.58 56.08 47.17 55.82 47.77 55.41 48.25 54.83 48.63 54.25 49 53.43 49.19 52.37 49.19 51.42 49.19 50.64 49.04 50.05 48.73 49.45 48.42 48.98 48.01 48.64 47.48 48.3 46.95 48.06 46.31 47.93 45.56 47.79 44.81 47.72 43.99 47.72 43.11L47.72 41.47 40.46 41.47 40.46 44.64C40.46 46.65 40.8 48.37 41.48 49.78 42.17 51.19 43.07 52.35 44.19 53.26 45.32 54.16 46.6 54.82 48.03 55.25 49.46 55.68 50.94 55.89 52.48 55.89 55.2 55.89 57.37 55.47 58.97 54.64 60.57 53.8 61.8 52.76 62.65 51.52 63.5 50.27 64.05 48.94 64.28 47.5 64.52 46.07 64.64 44.76 64.64 43.57L64.64 43.57ZM77.17 42.95L69.4 42.95C69.36 45.2 69.77 47.15 70.62 48.78 71.48 50.42 72.63 51.76 74.07 52.82 75.52 53.88 77.19 54.65 79.08 55.15 80.98 55.64 82.93 55.89 84.94 55.89 87.43 55.89 89.62 55.6 91.51 55.02 93.4 54.44 94.98 53.63 96.26 52.59 97.54 51.55 98.5 50.32 99.15 48.89 99.8 47.45 100.12 45.9 100.12 44.23 100.12 42.19 99.69 40.51 98.82 39.2 97.95 37.89 96.92 36.84 95.73 36.05 94.53 35.27 93.33 34.7 92.12 34.34 90.91 33.98 89.97 33.74 89.28 33.6 87 33.02 85.15 32.54 83.74 32.17 82.32 31.79 81.22 31.42 80.41 31.04 79.61 30.67 79.08 30.26 78.8 29.82 78.53 29.37 78.39 28.79 78.39 28.08 78.39 27.29 78.57 26.65 78.91 26.14 79.25 25.62 79.68 25.2 80.21 24.86 80.74 24.52 81.33 24.28 81.97 24.14 82.62 24.01 83.27 23.94 83.92 23.94 84.9 23.94 85.82 24.02 86.65 24.19 87.49 24.36 88.23 24.65 88.87 25.06 89.52 25.47 90.04 26.03 90.43 26.75 90.83 27.46 91.06 28.37 91.12 29.46L98.9 29.46C98.9 27.35 98.49 25.55 97.69 24.06 96.89 22.58 95.81 21.36 94.45 20.41 93.08 19.46 91.52 18.77 89.77 18.34 88.01 17.91 86.18 17.7 84.27 17.7 82.64 17.7 81 17.92 79.37 18.36 77.73 18.81 76.26 19.49 74.97 20.41 73.67 21.33 72.63 22.48 71.83 23.86 71.02 25.24 70.62 26.87 70.62 28.74 70.62 30.41 70.94 31.84 71.57 33.01 72.2 34.19 73.03 35.17 74.05 35.95 75.07 36.73 76.23 37.37 77.53 37.87 78.82 38.36 80.15 38.78 81.51 39.12 82.84 39.5 84.15 39.84 85.45 40.14 86.74 40.45 87.9 40.81 88.93 41.22 89.95 41.63 90.78 42.14 91.41 42.75 92.04 43.36 92.35 44.16 92.35 45.15 92.35 46.07 92.11 46.83 91.64 47.43 91.16 48.02 90.56 48.49 89.85 48.83 89.13 49.17 88.36 49.4 87.55 49.52 86.73 49.64 85.96 49.7 85.25 49.7 84.19 49.7 83.17 49.58 82.18 49.32 81.19 49.06 80.33 48.67 79.6 48.14 78.86 47.62 78.28 46.93 77.83 46.07 77.39 45.22 77.17 44.18 77.17 42.95L77.17 42.95ZM111.32 36.97C111.32 35.37 111.5 33.82 111.85 32.32 112.21 30.82 112.78 29.48 113.57 28.31 114.35 27.13 115.37 26.2 116.63 25.5 117.9 24.8 119.43 24.45 121.24 24.45 123.04 24.45 124.58 24.8 125.84 25.5 127.1 26.2 128.12 27.13 128.9 28.31 129.69 29.48 130.26 30.82 130.62 32.32 130.97 33.82 131.15 35.37 131.15 36.97 131.15 38.51 130.97 40 130.62 41.45 130.26 42.9 129.69 44.2 128.9 45.36 128.12 46.52 127.1 47.45 125.84 48.14 124.58 48.84 123.04 49.19 121.24 49.19 119.43 49.19 117.9 48.84 116.63 48.14 115.37 47.45 114.35 46.52 113.57 45.36 112.78 44.2 112.21 42.9 111.85 41.45 111.5 40 111.32 38.51 111.32 36.97L111.32 36.97ZM103.29 36.97C103.29 39.63 103.7 42.11 104.52 44.41 105.34 46.71 106.51 48.71 108.05 50.42 109.58 52.12 111.46 53.46 113.7 54.43 115.93 55.4 118.44 55.89 121.24 55.89 124.06 55.89 126.59 55.4 128.8 54.43 131.02 53.46 132.89 52.12 134.43 50.42 135.96 48.71 137.13 46.71 137.95 44.41 138.77 42.11 139.18 39.63 139.18 36.97 139.18 34.25 138.77 31.72 137.95 29.38 137.13 27.05 135.96 25.01 134.43 23.27 132.89 21.53 131.02 20.17 128.8 19.18 126.59 18.19 124.06 17.7 121.24 17.7 118.44 17.7 115.93 18.19 113.7 19.18 111.46 20.17 109.58 21.53 108.05 23.27 106.51 25.01 105.34 27.05 104.52 29.38 103.7 31.72 103.29 34.25 103.29 36.97L103.29 36.97ZM144.65 18.57L144.65 55.07 152.16 55.07 152.16 30.63 152.27 30.63 167.45 55.07 175.48 55.07 175.48 18.57 167.96 18.57 167.96 43.06 167.86 43.06 152.63 18.57 144.65 18.57ZM190.15 36.97L190.15 29.1 182.12 29.1 182.12 36.97 190.15 36.97ZM182.12 47.2L182.12 55.07 190.15 55.07 190.15 47.2 182.12 47.2ZM205.95 40.96L210.7 27.57 210.8 27.57 215.4 40.96 205.95 40.96ZM206.71 18.57L192.91 55.07 200.99 55.07 203.85 46.94 217.5 46.94 220.26 55.07 228.59 55.07 214.94 18.57 206.71 18.57ZM239.79 35.75L239.79 24.81 246.03 24.81C246.95 24.81 247.83 24.87 248.68 25.01 249.54 25.15 250.29 25.41 250.93 25.8 251.58 26.2 252.1 26.75 252.49 27.46 252.89 28.18 253.08 29.12 253.08 30.28 253.08 31.44 252.89 32.37 252.49 33.09 252.1 33.8 251.58 34.36 250.93 34.75 250.29 35.14 249.54 35.41 248.68 35.54 247.83 35.68 246.95 35.75 246.03 35.75L239.79 35.75ZM231.76 18.57L231.76 55.07 239.79 55.07 239.79 41.98 248.22 41.98C250.51 41.98 252.45 41.65 254.05 40.99 255.65 40.32 256.96 39.44 257.96 38.35 258.97 37.26 259.7 36.01 260.16 34.6 260.62 33.18 260.85 31.74 260.85 30.28 260.85 28.78 260.62 27.33 260.16 25.93 259.7 24.53 258.97 23.29 257.96 22.2 256.96 21.11 255.65 20.23 254.05 19.57 252.45 18.9 250.51 18.57 248.22 18.57L231.76 18.57ZM265.86 18.57L265.86 55.07 273.89 55.07 273.89 18.57 265.86 18.57Z" id="JSON:API"/>
        <path d="M19.13 106.99L24.91 106.99 24.91 100.86 22.6 100.86C21.44 100.86 20.46 100.53 19.65 99.87 18.84 99.22 18.18 98.35 17.68 97.27 17.18 96.19 16.81 94.92 16.58 93.45 16.35 91.98 16.23 90.48 16.23 88.94L16.23 72.73C16.23 69.57 15.89 66.85 15.19 64.57 14.5 62.29 13.69 60.4 12.76 58.9 11.83 57.39 10.93 56.26 10.04 55.48 9.15 54.71 8.52 54.21 8.13 53.98L8.13 53.75C8.52 53.52 9.15 53.01 10.04 52.24 10.93 51.47 11.83 50.33 12.76 48.83 13.69 47.32 14.5 45.43 15.19 43.16 15.89 40.88 16.23 38.16 16.23 35L16.23 18.68C16.23 17.13 16.35 15.65 16.58 14.22 16.81 12.79 17.18 11.52 17.68 10.4 18.18 9.28 18.84 8.39 19.65 7.74 20.46 7.08 21.44 6.75 22.6 6.75L24.91 6.75 24.91 0.62 19.13 0.62C15.89 0.62 13.38 1.93 11.6 4.56 9.83 7.18 8.94 10.69 8.94 15.09L8.94 32.33C8.94 34.65 8.83 36.93 8.59 39.16 8.36 41.4 7.94 43.39 7.32 45.12 6.7 46.86 5.85 48.25 4.77 49.29 3.69 50.33 2.3 50.85 0.61 50.85L0.61 56.99C2.3 56.99 3.69 57.51 4.77 58.55 5.85 59.59 6.7 60.98 7.32 62.72 7.94 64.45 8.36 66.44 8.59 68.68 8.83 70.92 8.94 73.19 8.94 75.51L8.94 92.52C8.94 96.92 9.83 100.43 11.6 103.06 13.38 105.68 15.89 106.99 19.13 106.99L19.13 106.99Z" id="{" opacity="0.39"/>
        <path d="M301.88 0.62L296.1 0.62 296.1 6.75 298.41 6.75C299.57 6.75 300.55 7.08 301.36 7.74 302.17 8.39 302.83 9.28 303.33 10.4 303.83 11.52 304.2 12.79 304.43 14.22 304.66 15.65 304.78 17.13 304.78 18.68L304.78 35C304.78 38.16 305.12 40.88 305.82 43.16 306.51 45.43 307.32 47.32 308.25 48.83 309.18 50.33 310.08 51.47 310.97 52.24 311.86 53.01 312.49 53.52 312.88 53.75L312.88 53.98C312.49 54.21 311.86 54.71 310.97 55.48 310.08 56.26 309.18 57.39 308.25 58.9 307.32 60.4 306.51 62.29 305.82 64.57 305.12 66.85 304.78 69.57 304.78 72.73L304.78 88.94C304.78 90.48 304.66 91.98 304.43 93.45 304.2 94.92 303.83 96.19 303.33 97.27 302.83 98.35 302.17 99.22 301.36 99.87 300.55 100.53 299.57 100.86 298.41 100.86L296.1 100.86 296.1 106.99 301.88 106.99C305.12 106.99 307.63 105.68 309.41 103.06 311.18 100.43 312.07 96.92 312.07 92.52L312.07 75.39C312.07 73.08 312.18 70.8 312.42 68.56 312.65 66.33 313.07 64.34 313.69 62.6 314.31 60.87 315.16 59.48 316.24 58.44 317.32 57.39 318.71 56.87 320.4 56.87L320.4 50.74C318.71 50.74 317.32 50.22 316.24 49.18 315.16 48.13 314.31 46.75 313.69 45.01 313.07 43.27 312.65 41.29 312.42 39.05 312.18 36.81 312.07 34.53 312.07 32.22L312.07 15.09C312.07 10.69 311.18 7.18 309.41 4.56 307.63 1.93 305.12 0.62 301.88 0.62L301.88 0.62Z" id="}" opacity="0.39"/>
        <path d="M43.72 79.89L45.45 75.13 45.48 75.13 47.18 79.89 43.72 79.89ZM44.74 73.9L40.76 84.11 42.15 84.11 43.29 81.04 47.61 81.04 48.73 84.11 50.23 84.11 46.24 73.9 44.74 73.9ZM55.75 81.78L54.53 81.78C54.55 82.24 54.65 82.63 54.82 82.94 54.99 83.26 55.22 83.52 55.5 83.72 55.79 83.91 56.12 84.05 56.49 84.14 56.86 84.22 57.25 84.27 57.66 84.27 58.04 84.27 58.41 84.23 58.79 84.16 59.16 84.09 59.5 83.96 59.8 83.78 60.1 83.6 60.34 83.36 60.53 83.07 60.72 82.77 60.81 82.4 60.81 81.95 60.81 81.6 60.74 81.3 60.6 81.06 60.46 80.83 60.28 80.63 60.06 80.47 59.83 80.31 59.58 80.19 59.29 80.09 59 80 58.7 79.92 58.39 79.85 58.11 79.78 57.82 79.72 57.54 79.66 57.25 79.59 56.99 79.52 56.76 79.43 56.53 79.34 56.35 79.22 56.2 79.08 56.05 78.95 55.98 78.77 55.98 78.56 55.98 78.37 56.02 78.22 56.12 78.1 56.21 77.98 56.34 77.88 56.49 77.81 56.64 77.74 56.81 77.69 57 77.66 57.18 77.63 57.37 77.62 57.55 77.62 57.75 77.62 57.95 77.64 58.14 77.68 58.34 77.73 58.52 77.79 58.68 77.89 58.84 77.99 58.97 78.11 59.08 78.27 59.18 78.43 59.25 78.62 59.27 78.86L60.48 78.86C60.45 78.41 60.36 78.04 60.19 77.74 60.03 77.44 59.82 77.2 59.54 77.02 59.27 76.85 58.96 76.72 58.61 76.65 58.25 76.58 57.87 76.55 57.45 76.55 57.13 76.55 56.8 76.59 56.47 76.67 56.14 76.75 55.85 76.87 55.58 77.04 55.32 77.21 55.11 77.42 54.94 77.69 54.77 77.96 54.69 78.28 54.69 78.65 54.69 79.12 54.81 79.5 55.05 79.76 55.29 80.03 55.58 80.24 55.94 80.39 56.3 80.53 56.69 80.65 57.11 80.73 57.53 80.81 57.91 80.9 58.27 81 58.63 81.1 58.93 81.23 59.17 81.39 59.4 81.56 59.52 81.79 59.52 82.11 59.52 82.34 59.47 82.53 59.35 82.67 59.24 82.82 59.09 82.93 58.91 83.01 58.74 83.09 58.55 83.14 58.34 83.17 58.13 83.2 57.93 83.21 57.74 83.21 57.49 83.21 57.25 83.19 57.01 83.14 56.78 83.09 56.57 83.01 56.38 82.9 56.2 82.79 56.05 82.64 55.93 82.46 55.82 82.27 55.76 82.05 55.75 81.78L55.75 81.78ZM63.84 76.72L63.84 74.5 62.63 74.5 62.63 76.72 61.37 76.72 61.37 77.79 62.63 77.79 62.63 82.49C62.63 82.84 62.66 83.11 62.73 83.32 62.79 83.53 62.9 83.7 63.03 83.81 63.17 83.92 63.35 84 63.58 84.05 63.8 84.09 64.07 84.11 64.38 84.11L65.31 84.11 65.31 83.04 64.76 83.04C64.57 83.04 64.41 83.03 64.29 83.02 64.17 83 64.08 82.97 64.01 82.92 63.95 82.88 63.9 82.81 63.88 82.72 63.85 82.64 63.84 82.52 63.84 82.38L63.84 77.79 65.31 77.79 65.31 76.72 63.84 76.72ZM73.21 84.08C73 84.21 72.71 84.27 72.34 84.27 72.02 84.27 71.77 84.18 71.58 84 71.4 83.83 71.31 83.54 71.31 83.14 70.97 83.54 70.58 83.83 70.14 84 69.7 84.18 69.22 84.27 68.7 84.27 68.37 84.27 68.05 84.23 67.75 84.15 67.45 84.08 67.19 83.96 66.97 83.8 66.75 83.63 66.58 83.42 66.45 83.16 66.32 82.9 66.26 82.58 66.26 82.21 66.26 81.79 66.33 81.45 66.47 81.18 66.62 80.91 66.8 80.69 67.04 80.53 67.27 80.36 67.54 80.23 67.84 80.15 68.14 80.06 68.45 79.99 68.76 79.93 69.09 79.87 69.41 79.82 69.71 79.78 70.01 79.75 70.28 79.7 70.51 79.64 70.73 79.58 70.92 79.49 71.05 79.37 71.18 79.25 71.25 79.08 71.25 78.85 71.25 78.58 71.2 78.37 71.1 78.2 71 78.04 70.87 77.92 70.71 77.83 70.56 77.75 70.38 77.69 70.18 77.66 69.99 77.63 69.79 77.62 69.6 77.62 69.09 77.62 68.66 77.72 68.32 77.91 67.97 78.11 67.79 78.48 67.76 79.02L66.54 79.02C66.56 78.56 66.66 78.18 66.83 77.86 67 77.55 67.23 77.29 67.52 77.1 67.8 76.9 68.13 76.76 68.5 76.67 68.86 76.59 69.26 76.55 69.68 76.55 70.01 76.55 70.34 76.57 70.67 76.62 71 76.66 71.3 76.76 71.56 76.91 71.83 77.06 72.04 77.27 72.21 77.53 72.37 77.8 72.45 78.15 72.45 78.58L72.45 82.38C72.45 82.67 72.47 82.88 72.5 83.01 72.53 83.14 72.65 83.21 72.84 83.21 72.94 83.21 73.06 83.19 73.21 83.14L73.21 84.08ZM71.23 80.29C71.08 80.41 70.88 80.49 70.63 80.54 70.39 80.59 70.13 80.64 69.85 80.67 69.58 80.7 69.31 80.74 69.03 80.79 68.76 80.83 68.51 80.9 68.29 80.99 68.07 81.09 67.89 81.22 67.75 81.4 67.61 81.58 67.55 81.82 67.55 82.12 67.55 82.32 67.59 82.49 67.67 82.63 67.75 82.77 67.85 82.88 67.98 82.97 68.11 83.05 68.26 83.11 68.43 83.15 68.6 83.19 68.78 83.21 68.98 83.21 69.38 83.21 69.72 83.15 70 83.04 70.29 82.94 70.52 82.8 70.71 82.63 70.89 82.46 71.02 82.28 71.11 82.09 71.19 81.89 71.23 81.71 71.23 81.54L71.23 80.29ZM74.34 76.72L74.34 84.11 75.55 84.11 75.55 79.93C75.55 79.6 75.6 79.29 75.69 79.01 75.78 78.73 75.92 78.49 76.1 78.28 76.28 78.07 76.5 77.9 76.78 77.79 77.05 77.68 77.37 77.62 77.74 77.62 78.21 77.62 78.58 77.75 78.84 78.02 79.11 78.29 79.24 78.65 79.24 79.11L79.24 84.11 80.46 84.11 80.46 79.25C80.46 78.85 80.42 78.48 80.34 78.15 80.26 77.83 80.11 77.54 79.91 77.3 79.71 77.07 79.45 76.88 79.13 76.75 78.8 76.61 78.4 76.55 77.91 76.55 76.82 76.55 76.02 76.99 75.51 77.89L75.48 77.89 75.48 76.72 74.34 76.72ZM83.17 80.48C83.17 80.12 83.21 79.76 83.29 79.42 83.37 79.08 83.49 78.77 83.66 78.5 83.83 78.24 84.06 78.02 84.35 77.86 84.63 77.7 84.98 77.62 85.39 77.62 85.81 77.62 86.17 77.7 86.46 77.85 86.76 78.01 87 78.22 87.19 78.48 87.37 78.73 87.51 79.03 87.59 79.37 87.68 79.71 87.72 80.06 87.72 80.42 87.72 80.76 87.68 81.1 87.6 81.44 87.52 81.77 87.39 82.07 87.21 82.33 87.03 82.59 86.79 82.8 86.51 82.97 86.22 83.13 85.87 83.21 85.46 83.21 85.07 83.21 84.73 83.13 84.44 82.98 84.15 82.83 83.91 82.62 83.73 82.37 83.54 82.11 83.4 81.82 83.31 81.49 83.22 81.16 83.17 80.82 83.17 80.48L83.17 80.48ZM88.89 84.11L88.89 73.9 87.68 73.9 87.68 77.7 87.65 77.7C87.52 77.48 87.35 77.3 87.16 77.15 86.96 77.01 86.75 76.89 86.54 76.8 86.32 76.71 86.1 76.64 85.88 76.6 85.66 76.56 85.45 76.55 85.26 76.55 84.7 76.55 84.21 76.65 83.78 76.85 83.36 77.06 83.01 77.33 82.72 77.68 82.44 78.03 82.23 78.44 82.1 78.91 81.96 79.37 81.89 79.87 81.89 80.39 81.89 80.92 81.96 81.41 82.1 81.88 82.25 82.35 82.46 82.76 82.74 83.11 83.02 83.46 83.37 83.74 83.8 83.95 84.22 84.16 84.72 84.27 85.29 84.27 85.81 84.27 86.28 84.18 86.71 84 87.14 83.81 87.45 83.52 87.65 83.11L87.68 83.11 87.68 84.11 88.89 84.11ZM97.32 84.08C97.11 84.21 96.82 84.27 96.45 84.27 96.13 84.27 95.88 84.18 95.69 84 95.51 83.83 95.42 83.54 95.42 83.14 95.08 83.54 94.69 83.83 94.25 84 93.81 84.18 93.33 84.27 92.81 84.27 92.48 84.27 92.16 84.23 91.86 84.15 91.56 84.08 91.3 83.96 91.08 83.8 90.86 83.63 90.69 83.42 90.56 83.16 90.43 82.9 90.37 82.58 90.37 82.21 90.37 81.79 90.44 81.45 90.58 81.18 90.73 80.91 90.91 80.69 91.15 80.53 91.38 80.36 91.65 80.23 91.95 80.15 92.25 80.06 92.56 79.99 92.87 79.93 93.2 79.87 93.52 79.82 93.82 79.78 94.12 79.75 94.39 79.7 94.61 79.64 94.84 79.58 95.02 79.49 95.16 79.37 95.29 79.25 95.36 79.08 95.36 78.85 95.36 78.58 95.31 78.37 95.21 78.2 95.11 78.04 94.98 77.92 94.82 77.83 94.66 77.75 94.49 77.69 94.29 77.66 94.1 77.63 93.9 77.62 93.71 77.62 93.2 77.62 92.77 77.72 92.43 77.91 92.08 78.11 91.9 78.48 91.87 79.02L90.65 79.02C90.67 78.56 90.77 78.18 90.94 77.86 91.11 77.55 91.34 77.29 91.63 77.1 91.91 76.9 92.24 76.76 92.61 76.67 92.97 76.59 93.37 76.55 93.79 76.55 94.12 76.55 94.45 76.57 94.78 76.62 95.11 76.66 95.41 76.76 95.67 76.91 95.94 77.06 96.15 77.27 96.32 77.53 96.48 77.8 96.56 78.15 96.56 78.58L96.56 82.38C96.56 82.67 96.58 82.88 96.61 83.01 96.64 83.14 96.76 83.21 96.95 83.21 97.05 83.21 97.17 83.19 97.32 83.14L97.32 84.08ZM95.34 80.29C95.19 80.41 94.99 80.49 94.74 80.54 94.5 80.59 94.24 80.64 93.96 80.67 93.69 80.7 93.42 80.74 93.14 80.79 92.87 80.83 92.62 80.9 92.4 80.99 92.18 81.09 92 81.22 91.86 81.4 91.72 81.58 91.65 81.82 91.65 82.12 91.65 82.32 91.7 82.49 91.78 82.63 91.86 82.77 91.96 82.88 92.09 82.97 92.22 83.05 92.37 83.11 92.54 83.15 92.71 83.19 92.89 83.21 93.08 83.21 93.49 83.21 93.83 83.15 94.11 83.04 94.4 82.94 94.63 82.8 94.82 82.63 95 82.46 95.13 82.28 95.22 82.09 95.3 81.89 95.34 81.71 95.34 81.54L95.34 80.29ZM98.4 76.72L98.4 84.11 99.62 84.11 99.62 80.82C99.62 80.34 99.67 79.92 99.76 79.56 99.86 79.19 100.01 78.88 100.22 78.62 100.43 78.36 100.71 78.17 101.05 78.03 101.39 77.9 101.81 77.83 102.29 77.83L102.29 76.55C101.64 76.53 101.09 76.66 100.66 76.95 100.23 77.23 99.87 77.68 99.58 78.28L99.55 78.28 99.55 76.72 98.4 76.72ZM104.1 80.48C104.1 80.12 104.13 79.76 104.21 79.42 104.29 79.08 104.41 78.77 104.58 78.5 104.75 78.24 104.98 78.02 105.27 77.86 105.55 77.7 105.9 77.62 106.31 77.62 106.73 77.62 107.09 77.7 107.38 77.85 107.68 78.01 107.92 78.22 108.11 78.48 108.29 78.73 108.43 79.03 108.51 79.37 108.6 79.71 108.64 80.06 108.64 80.42 108.64 80.76 108.6 81.1 108.52 81.44 108.44 81.77 108.31 82.07 108.13 82.33 107.95 82.59 107.71 82.8 107.43 82.97 107.14 83.13 106.79 83.21 106.38 83.21 105.99 83.21 105.65 83.13 105.36 82.98 105.07 82.83 104.83 82.62 104.65 82.37 104.46 82.11 104.32 81.82 104.23 81.49 104.14 81.16 104.1 80.82 104.1 80.48L104.1 80.48ZM109.82 84.11L109.82 73.9 108.6 73.9 108.6 77.7 108.57 77.7C108.44 77.48 108.27 77.3 108.08 77.15 107.88 77.01 107.68 76.89 107.46 76.8 107.24 76.71 107.02 76.64 106.8 76.6 106.58 76.56 106.37 76.55 106.18 76.55 105.62 76.55 105.13 76.65 104.7 76.85 104.28 77.06 103.93 77.33 103.65 77.68 103.36 78.03 103.15 78.44 103.02 78.91 102.88 79.37 102.81 79.87 102.81 80.39 102.81 80.92 102.88 81.41 103.02 81.88 103.17 82.35 103.38 82.76 103.66 83.11 103.94 83.46 104.29 83.74 104.72 83.95 105.14 84.16 105.64 84.27 106.21 84.27 106.73 84.27 107.2 84.18 107.63 84 108.06 83.81 108.37 83.52 108.57 83.11L108.6 83.11 108.6 84.11 109.82 84.11ZM116.17 77.79L116.17 84.11 117.38 84.11 117.38 77.79 118.81 77.79 118.81 76.72 117.38 76.72 117.38 75.69C117.38 75.36 117.46 75.14 117.62 75.03 117.79 74.92 118.01 74.86 118.31 74.86 118.41 74.86 118.53 74.87 118.65 74.88 118.78 74.89 118.89 74.92 119 74.96L119 73.9C118.88 73.86 118.75 73.83 118.6 73.81 118.46 73.8 118.32 73.79 118.21 73.79 117.54 73.79 117.03 73.94 116.69 74.25 116.34 74.56 116.17 75.02 116.17 75.62L116.17 76.72 114.92 76.72 114.92 77.79 116.17 77.79ZM120.78 80.42C120.78 79.97 120.84 79.57 120.96 79.23 121.08 78.88 121.25 78.59 121.46 78.35 121.67 78.11 121.91 77.93 122.19 77.8 122.47 77.68 122.77 77.62 123.09 77.62 123.4 77.62 123.7 77.68 123.98 77.8 124.26 77.93 124.51 78.11 124.72 78.35 124.93 78.59 125.09 78.88 125.21 79.23 125.33 79.57 125.39 79.97 125.39 80.42 125.39 80.87 125.33 81.27 125.21 81.61 125.09 81.96 124.93 82.25 124.72 82.49 124.51 82.72 124.26 82.9 123.98 83.02 123.7 83.15 123.4 83.21 123.09 83.21 122.77 83.21 122.47 83.15 122.19 83.02 121.91 82.9 121.67 82.72 121.46 82.49 121.25 82.25 121.08 81.96 120.96 81.61 120.84 81.27 120.78 80.87 120.78 80.42L120.78 80.42ZM119.5 80.42C119.5 80.96 119.57 81.47 119.73 81.94 119.88 82.4 120.11 82.81 120.41 83.16 120.72 83.51 121.09 83.78 121.54 83.97 121.99 84.17 122.5 84.27 123.09 84.27 123.68 84.27 124.19 84.17 124.64 83.97 125.08 83.78 125.46 83.51 125.76 83.16 126.07 82.81 126.29 82.4 126.45 81.94 126.6 81.47 126.68 80.96 126.68 80.42 126.68 79.88 126.6 79.37 126.45 78.9 126.29 78.43 126.07 78.02 125.76 77.67 125.46 77.32 125.08 77.05 124.64 76.85 124.19 76.65 123.68 76.55 123.09 76.55 122.5 76.55 121.99 76.65 121.54 76.85 121.09 77.05 120.72 77.32 120.41 77.67 120.11 78.02 119.88 78.43 119.73 78.9 119.57 79.37 119.5 79.88 119.5 80.42L119.5 80.42ZM128.06 76.72L128.06 84.11 129.28 84.11 129.28 80.82C129.28 80.34 129.33 79.92 129.42 79.56 129.52 79.19 129.67 78.88 129.88 78.62 130.09 78.36 130.36 78.17 130.71 78.03 131.05 77.9 131.47 77.83 131.95 77.83L131.95 76.55C131.29 76.53 130.75 76.66 130.32 76.95 129.89 77.23 129.53 77.68 129.24 78.28L129.21 78.28 129.21 76.72 128.06 76.72ZM136.89 73.9L136.89 84.11 138.1 84.11 138.1 83.12 138.13 83.12C138.26 83.34 138.43 83.53 138.62 83.67 138.82 83.82 139.03 83.94 139.25 84.02 139.46 84.11 139.69 84.17 139.91 84.21 140.13 84.25 140.34 84.27 140.52 84.27 141.08 84.27 141.57 84.17 142 83.97 142.42 83.77 142.77 83.49 143.06 83.14 143.34 82.8 143.55 82.39 143.69 81.92 143.82 81.46 143.89 80.96 143.89 80.44 143.89 79.91 143.82 79.42 143.68 78.95 143.54 78.48 143.32 78.07 143.04 77.71 142.76 77.35 142.41 77.07 141.98 76.86 141.56 76.65 141.06 76.55 140.49 76.55 139.97 76.55 139.5 76.64 139.07 76.82 138.64 77.01 138.33 77.31 138.13 77.72L138.1 77.72 138.1 73.9 136.89 73.9ZM142.61 80.35C142.61 80.71 142.57 81.06 142.49 81.41 142.42 81.75 142.29 82.06 142.12 82.32 141.95 82.59 141.72 82.8 141.44 82.97 141.16 83.13 140.81 83.21 140.39 83.21 139.97 83.21 139.61 83.13 139.32 82.97 139.02 82.82 138.78 82.61 138.59 82.35 138.41 82.09 138.27 81.8 138.19 81.46 138.1 81.12 138.06 80.77 138.06 80.41 138.06 80.06 138.1 79.72 138.18 79.39 138.26 79.06 138.39 78.76 138.57 78.5 138.75 78.24 138.99 78.02 139.27 77.86 139.56 77.7 139.91 77.62 140.32 77.62 140.71 77.62 141.05 77.69 141.34 77.85 141.63 78 141.87 78.2 142.06 78.46 142.24 78.72 142.38 79.01 142.47 79.34 142.56 79.67 142.61 80.01 142.61 80.35L142.61 80.35ZM151.44 84.11L151.44 76.72 150.23 76.72 150.23 80.89C150.23 81.23 150.18 81.53 150.09 81.82 150 82.1 149.87 82.34 149.68 82.55 149.5 82.76 149.28 82.92 149 83.04 148.73 83.15 148.41 83.21 148.04 83.21 147.57 83.21 147.21 83.08 146.94 82.81 146.67 82.54 146.54 82.18 146.54 81.72L146.54 76.72 145.32 76.72 145.32 81.58C145.32 81.98 145.36 82.34 145.44 82.67 145.53 83 145.67 83.29 145.87 83.52 146.07 83.76 146.33 83.95 146.65 84.07 146.98 84.2 147.38 84.27 147.87 84.27 148.41 84.27 148.88 84.16 149.28 83.95 149.68 83.73 150.01 83.4 150.27 82.94L150.3 82.94 150.3 84.11 151.44 84.11ZM154.56 75.39L154.56 73.9 153.35 73.9 153.35 75.39 154.56 75.39ZM153.35 76.72L153.35 84.11 154.56 84.11 154.56 76.72 153.35 76.72ZM156.52 73.9L156.52 84.11 157.74 84.11 157.74 73.9 156.52 73.9ZM160.51 80.48C160.51 80.12 160.55 79.76 160.62 79.42 160.7 79.08 160.82 78.77 161 78.5 161.17 78.24 161.4 78.02 161.68 77.86 161.97 77.7 162.32 77.62 162.73 77.62 163.15 77.62 163.5 77.7 163.8 77.85 164.09 78.01 164.33 78.22 164.52 78.48 164.71 78.73 164.84 79.03 164.93 79.37 165.01 79.71 165.06 80.06 165.06 80.42 165.06 80.76 165.02 81.1 164.94 81.44 164.85 81.77 164.72 82.07 164.54 82.33 164.36 82.59 164.13 82.8 163.84 82.97 163.56 83.13 163.21 83.21 162.8 83.21 162.41 83.21 162.07 83.13 161.77 82.98 161.48 82.83 161.25 82.62 161.06 82.37 160.87 82.11 160.74 81.82 160.65 81.49 160.55 81.16 160.51 80.82 160.51 80.48L160.51 80.48ZM166.23 84.11L166.23 73.9 165.01 73.9 165.01 77.7 164.99 77.7C164.85 77.48 164.69 77.3 164.49 77.15 164.3 77.01 164.09 76.89 163.87 76.8 163.65 76.71 163.43 76.64 163.21 76.6 162.99 76.56 162.79 76.55 162.6 76.55 162.03 76.55 161.54 76.65 161.12 76.85 160.69 77.06 160.34 77.33 160.06 77.68 159.78 78.03 159.57 78.44 159.43 78.91 159.29 79.37 159.22 79.87 159.22 80.39 159.22 80.92 159.29 81.41 159.44 81.88 159.58 82.35 159.79 82.76 160.07 83.11 160.35 83.46 160.71 83.74 161.13 83.95 161.56 84.16 162.05 84.27 162.63 84.27 163.14 84.27 163.61 84.18 164.04 84 164.47 83.81 164.79 83.52 164.99 83.11L165.01 83.11 165.01 84.11 166.23 84.11ZM169.39 75.39L169.39 73.9 168.17 73.9 168.17 75.39 169.39 75.39ZM168.17 76.72L168.17 84.11 169.39 84.11 169.39 76.72 168.17 76.72ZM171.28 76.72L171.28 84.11 172.49 84.11 172.49 79.93C172.49 79.6 172.54 79.29 172.63 79.01 172.72 78.73 172.85 78.49 173.04 78.28 173.22 78.07 173.44 77.9 173.72 77.79 173.99 77.68 174.31 77.62 174.68 77.62 175.15 77.62 175.51 77.75 175.78 78.02 176.05 78.29 176.18 78.65 176.18 79.11L176.18 84.11 177.4 84.11 177.4 79.25C177.4 78.85 177.36 78.48 177.28 78.15 177.2 77.83 177.05 77.54 176.85 77.3 176.65 77.07 176.39 76.88 176.07 76.75 175.74 76.61 175.34 76.55 174.85 76.55 173.76 76.55 172.96 76.99 172.45 77.89L172.42 77.89 172.42 76.72 171.28 76.72ZM185.61 83.48L185.61 76.72 184.46 76.72 184.46 77.78 184.45 77.78C184.23 77.37 183.92 77.06 183.53 76.85 183.14 76.65 182.71 76.55 182.25 76.55 181.61 76.55 181.07 76.67 180.63 76.91 180.19 77.15 179.84 77.46 179.57 77.84 179.3 78.22 179.11 78.64 179 79.1 178.88 79.56 178.83 80.01 178.83 80.45 178.83 80.95 178.9 81.43 179.03 81.89 179.17 82.34 179.38 82.74 179.66 83.07 179.93 83.41 180.28 83.68 180.69 83.88 181.1 84.08 181.58 84.18 182.13 84.18 182.61 84.18 183.06 84.07 183.48 83.86 183.91 83.65 184.22 83.31 184.43 82.85L184.46 82.85 184.46 83.34C184.46 83.75 184.42 84.12 184.34 84.47 184.26 84.81 184.13 85.1 183.95 85.35 183.77 85.59 183.54 85.78 183.26 85.92 182.98 86.06 182.65 86.13 182.25 86.13 182.05 86.13 181.84 86.11 181.62 86.06 181.4 86.02 181.19 85.95 181.01 85.85 180.82 85.76 180.67 85.64 180.54 85.48 180.41 85.33 180.34 85.14 180.33 84.93L179.11 84.93C179.13 85.33 179.24 85.66 179.43 85.94 179.62 86.22 179.86 86.44 180.15 86.61 180.44 86.78 180.77 86.91 181.12 86.98 181.48 87.06 181.83 87.1 182.17 87.1 183.36 87.1 184.22 86.8 184.78 86.2 185.33 85.6 185.61 84.69 185.61 83.48L185.61 83.48ZM182.2 83.12C181.8 83.12 181.47 83.04 181.2 82.87 180.93 82.71 180.72 82.49 180.56 82.22 180.4 81.94 180.28 81.64 180.21 81.31 180.15 80.97 180.11 80.64 180.11 80.31 180.11 79.95 180.16 79.62 180.24 79.29 180.32 78.97 180.45 78.68 180.62 78.43 180.8 78.19 181.03 77.99 181.3 77.84 181.58 77.69 181.91 77.62 182.3 77.62 182.68 77.62 183.01 77.69 183.27 77.85 183.54 78 183.76 78.2 183.93 78.45 184.09 78.71 184.21 78.99 184.29 79.31 184.37 79.62 184.4 79.94 184.4 80.26 184.4 80.61 184.36 80.95 184.28 81.29 184.2 81.64 184.08 81.94 183.9 82.22 183.73 82.49 183.51 82.71 183.22 82.87 182.94 83.04 182.6 83.12 182.2 83.12L182.2 83.12ZM193.37 79.89L195.1 75.13 195.13 75.13 196.83 79.89 193.37 79.89ZM194.39 73.9L190.41 84.11 191.8 84.11 192.94 81.04 197.26 81.04 198.38 84.11 199.88 84.11 195.89 73.9 194.39 73.9ZM202.24 78.79L202.24 75.04 204.9 75.04C205.67 75.04 206.23 75.2 206.59 75.52 206.95 75.84 207.13 76.31 207.13 76.92 207.13 77.53 206.95 77.99 206.59 78.32 206.23 78.64 205.67 78.8 204.9 78.79L202.24 78.79ZM200.88 73.9L200.88 84.11 202.24 84.11 202.24 79.93 205.35 79.93C206.38 79.94 207.16 79.68 207.69 79.15 208.22 78.61 208.49 77.87 208.49 76.92 208.49 75.96 208.22 75.22 207.69 74.69 207.16 74.16 206.38 73.9 205.35 73.9L200.88 73.9ZM210.2 73.9L210.2 84.11 211.56 84.11 211.56 73.9 210.2 73.9ZM214.39 81.78L213.18 81.78C213.2 82.24 213.29 82.63 213.46 82.94 213.63 83.26 213.86 83.52 214.15 83.72 214.43 83.91 214.76 84.05 215.14 84.14 215.51 84.22 215.9 84.27 216.31 84.27 216.68 84.27 217.05 84.23 217.43 84.16 217.81 84.09 218.15 83.96 218.45 83.78 218.75 83.6 218.99 83.36 219.18 83.07 219.36 82.77 219.45 82.4 219.45 81.95 219.45 81.6 219.38 81.3 219.25 81.06 219.11 80.83 218.93 80.63 218.7 80.47 218.48 80.31 218.22 80.19 217.93 80.09 217.64 80 217.34 79.92 217.04 79.85 216.75 79.78 216.47 79.72 216.18 79.66 215.89 79.59 215.64 79.52 215.41 79.43 215.18 79.34 214.99 79.22 214.84 79.08 214.69 78.95 214.62 78.77 214.62 78.56 214.62 78.37 214.67 78.22 214.76 78.1 214.86 77.98 214.98 77.88 215.14 77.81 215.29 77.74 215.46 77.69 215.64 77.66 215.83 77.63 216.01 77.62 216.19 77.62 216.39 77.62 216.59 77.64 216.79 77.68 216.98 77.73 217.16 77.79 217.32 77.89 217.49 77.99 217.62 78.11 217.72 78.27 217.83 78.43 217.89 78.62 217.91 78.86L219.13 78.86C219.1 78.41 219 78.04 218.84 77.74 218.68 77.44 218.46 77.2 218.19 77.02 217.92 76.85 217.6 76.72 217.25 76.65 216.9 76.58 216.51 76.55 216.09 76.55 215.77 76.55 215.44 76.59 215.11 76.67 214.78 76.75 214.49 76.87 214.23 77.04 213.97 77.21 213.75 77.42 213.58 77.69 213.42 77.96 213.33 78.28 213.33 78.65 213.33 79.12 213.45 79.5 213.69 79.76 213.93 80.03 214.23 80.24 214.58 80.39 214.94 80.53 215.33 80.65 215.75 80.73 216.17 80.81 216.56 80.9 216.92 81 217.27 81.1 217.57 81.23 217.81 81.39 218.05 81.56 218.17 81.79 218.17 82.11 218.17 82.34 218.11 82.53 218 82.67 217.88 82.82 217.74 82.93 217.56 83.01 217.38 83.09 217.19 83.14 216.98 83.17 216.77 83.2 216.57 83.21 216.38 83.21 216.13 83.21 215.89 83.19 215.66 83.14 215.42 83.09 215.21 83.01 215.03 82.9 214.84 82.79 214.69 82.64 214.58 82.46 214.46 82.27 214.4 82.05 214.39 81.78L214.39 81.78ZM226.06 75.39L226.06 73.9 224.85 73.9 224.85 75.39 226.06 75.39ZM224.85 76.72L224.85 84.11 226.06 84.11 226.06 76.72 224.85 76.72ZM227.95 76.72L227.95 84.11 229.16 84.11 229.16 79.93C229.16 79.6 229.21 79.29 229.3 79.01 229.39 78.73 229.53 78.49 229.71 78.28 229.89 78.07 230.11 77.9 230.39 77.79 230.66 77.68 230.98 77.62 231.35 77.62 231.82 77.62 232.19 77.75 232.45 78.02 232.72 78.29 232.85 78.65 232.85 79.11L232.85 84.11 234.07 84.11 234.07 79.25C234.07 78.85 234.03 78.48 233.95 78.15 233.87 77.83 233.73 77.54 233.53 77.3 233.32 77.07 233.06 76.88 232.74 76.75 232.41 76.61 232.01 76.55 231.52 76.55 230.43 76.55 229.63 76.99 229.12 77.89L229.09 77.89 229.09 76.72 227.95 76.72ZM245.27 81.56L245.27 73.9 243.91 73.9 243.91 81.36C243.91 81.93 243.79 82.38 243.56 82.71 243.32 83.04 242.9 83.21 242.28 83.21 241.94 83.21 241.67 83.16 241.45 83.06 241.24 82.96 241.07 82.82 240.95 82.64 240.83 82.46 240.75 82.24 240.7 81.99 240.66 81.75 240.63 81.47 240.63 81.18L240.63 80.75 239.27 80.75 239.27 81.38C239.27 82.35 239.53 83.09 240.05 83.59 240.56 84.09 241.29 84.34 242.25 84.34 242.82 84.34 243.3 84.26 243.69 84.1 244.07 83.95 244.38 83.74 244.61 83.47 244.85 83.21 245.02 82.91 245.12 82.58 245.22 82.25 245.27 81.91 245.27 81.56L245.27 81.56ZM253.4 76.89L254.69 76.89C254.67 76.33 254.56 75.84 254.37 75.44 254.17 75.03 253.9 74.7 253.57 74.43 253.23 74.16 252.83 73.97 252.39 73.84 251.94 73.72 251.45 73.66 250.93 73.66 250.46 73.66 250.01 73.72 249.56 73.84 249.12 73.95 248.72 74.14 248.38 74.38 248.03 74.62 247.75 74.93 247.54 75.31 247.33 75.69 247.22 76.13 247.22 76.65 247.22 77.11 247.32 77.5 247.5 77.81 247.69 78.12 247.94 78.37 248.25 78.57 248.56 78.76 248.91 78.92 249.3 79.04 249.69 79.16 250.09 79.26 250.49 79.36 250.9 79.45 251.3 79.53 251.69 79.62 252.08 79.71 252.43 79.82 252.74 79.96 253.05 80.09 253.29 80.27 253.48 80.49 253.67 80.71 253.76 81 253.76 81.35 253.76 81.72 253.68 82.03 253.53 82.27 253.38 82.5 253.18 82.69 252.93 82.83 252.68 82.97 252.4 83.07 252.09 83.12 251.78 83.18 251.48 83.21 251.17 83.21 250.79 83.21 250.42 83.16 250.06 83.07 249.69 82.97 249.38 82.82 249.1 82.62 248.83 82.42 248.61 82.17 248.45 81.86 248.28 81.55 248.2 81.18 248.2 80.75L246.91 80.75C246.91 81.37 247.02 81.91 247.25 82.36 247.47 82.81 247.78 83.18 248.16 83.47 248.55 83.76 249 83.98 249.51 84.12 250.02 84.27 250.56 84.34 251.13 84.34 251.6 84.34 252.07 84.28 252.54 84.17 253.01 84.06 253.44 83.89 253.82 83.65 254.2 83.4 254.51 83.09 254.75 82.7 255 82.32 255.12 81.85 255.12 81.31 255.12 80.8 255.03 80.38 254.84 80.05 254.65 79.72 254.41 79.44 254.1 79.22 253.79 79 253.44 78.83 253.04 78.7 252.65 78.57 252.26 78.46 251.85 78.36 251.45 78.27 251.05 78.18 250.66 78.1 250.27 78.02 249.92 77.91 249.61 77.79 249.3 77.67 249.05 77.51 248.86 77.31 248.68 77.12 248.58 76.86 248.58 76.55 248.58 76.21 248.65 75.93 248.78 75.71 248.9 75.48 249.08 75.31 249.29 75.17 249.51 75.04 249.75 74.94 250.03 74.89 250.3 74.83 250.59 74.8 250.87 74.8 251.58 74.8 252.16 74.97 252.61 75.29 253.06 75.62 253.33 76.15 253.4 76.89L253.4 76.89ZM257.55 79.01C257.55 78.49 257.62 77.98 257.75 77.48 257.88 76.98 258.09 76.53 258.38 76.13 258.66 75.73 259.03 75.41 259.48 75.17 259.93 74.92 260.46 74.8 261.08 74.8 261.7 74.8 262.23 74.92 262.68 75.17 263.13 75.41 263.5 75.73 263.78 76.13 264.07 76.53 264.28 76.98 264.41 77.48 264.55 77.98 264.61 78.49 264.61 79.01 264.61 79.52 264.55 80.03 264.41 80.53 264.28 81.03 264.07 81.48 263.78 81.88 263.5 82.28 263.13 82.6 262.68 82.84 262.23 83.09 261.7 83.21 261.08 83.21 260.46 83.21 259.93 83.09 259.48 82.84 259.03 82.6 258.66 82.28 258.38 81.88 258.09 81.48 257.88 81.03 257.75 80.53 257.62 80.03 257.55 79.52 257.55 79.01L257.55 79.01ZM256.19 79.01C256.19 79.7 256.29 80.37 256.5 81.01 256.7 81.66 257.01 82.23 257.42 82.72 257.83 83.22 258.34 83.61 258.95 83.9 259.56 84.19 260.27 84.34 261.08 84.34 261.89 84.34 262.6 84.19 263.21 83.9 263.82 83.61 264.33 83.22 264.74 82.72 265.15 82.23 265.46 81.66 265.66 81.01 265.87 80.37 265.97 79.7 265.97 79.01 265.97 78.31 265.87 77.64 265.66 77 265.46 76.35 265.15 75.78 264.74 75.29 264.33 74.79 263.82 74.4 263.21 74.1 262.6 73.8 261.89 73.66 261.08 73.66 260.27 73.66 259.56 73.8 258.95 74.1 258.34 74.4 257.83 74.79 257.42 75.29 257.01 75.78 256.7 76.35 256.5 77 256.29 77.64 256.19 78.31 256.19 79.01L256.19 79.01ZM267.62 73.9L267.62 84.11 268.9 84.11 268.9 75.92 268.93 75.92 274.27 84.11 275.75 84.11 275.75 73.9 274.47 73.9 274.47 82.18 274.44 82.18 269.06 73.9 267.62 73.9Z" id="A-standard-for-build"/>
      </g>
    </g>
  </g>
</svg>